<svg width="13" height="12" viewBox="0 0 13 12" fill="none" xmlns="http://www.w3.org/2000/svg">
<path d="M8.73542 11.9986H4.4842C3.13271 11.9986 2.0332 10.9836 2.0332 9.73611C2.0332 8.48858 3.13271 7.47362 4.4842 7.47362H5.89737C6.31421 7.47362 6.65331 7.16061 6.65331 6.77583C6.65331 6.39106 6.31421 6.07804 5.89737 6.07804H4.41976V5.375H5.89737C6.73417 5.375 7.41494 6.0034 7.41494 6.77583C7.41494 7.54826 6.73417 8.17667 5.89737 8.17667H4.4842C3.55268 8.17667 2.79483 8.87622 2.79483 9.73608C2.79483 10.5959 3.55265 11.2955 4.4842 11.2955H8.73542V11.9986Z" fill="#0B799D"/>
<path d="M2.56444 0L2.05664 2.36501L2.56442 5.70954L4.37605 4.03726C4.83968 3.6093 5.12646 3.01804 5.12646 2.36498C5.12648 1.05883 3.97942 0 2.56444 0V0Z" fill="#E50058"/>
<path d="M0.00195312 2.36496C0.00195312 3.01801 0.288731 3.60927 0.75236 4.03724L2.56399 5.70951V0C1.14904 0 0.00195312 1.05883 0.00195312 2.36496Z" fill="#FF415B"/>
<path d="M2.56442 0.703125L2.05664 2.36509L2.56442 4.02706C3.55717 4.02706 4.36488 3.28151 4.36488 2.36509C4.36488 1.44868 3.55717 0.703125 2.56442 0.703125Z" fill="#FF415B"/>
<path d="M0.763672 2.36509C0.763672 3.28151 1.57135 4.02706 2.56414 4.02706V0.703125C1.57135 0.703125 0.763672 1.44868 0.763672 2.36509Z" fill="#FF7C48"/>
<path d="M3.60323 2.36518C3.60323 1.83642 3.13721 1.40625 2.56442 1.40625L2.05664 2.36518L2.56442 3.3241C3.13721 3.3241 3.60323 2.89393 3.60323 2.36518Z" fill="#E1EBF0"/>
<path d="M1.52539 2.36518C1.52539 2.89393 1.99141 3.3241 2.56423 3.3241V1.40625C1.99141 1.40625 1.52539 1.83642 1.52539 2.36518Z" fill="#FFF5F5"/>
<path d="M10.9687 7.47339L10.4609 9.73657L10.9687 11.9998L12.4049 10.674C12.7885 10.3199 12.9998 9.84906 12.9998 9.34828C12.9998 8.31446 12.0887 7.47339 10.9687 7.47339Z" fill="#E50058"/>
<path d="M8.9375 9.34826C8.9375 9.84906 9.14875 10.3199 9.53236 10.674L10.9686 11.9997V7.47339C9.84866 7.47339 8.9375 8.31446 8.9375 9.34826Z" fill="#FF415B"/>
</svg>
