<svg width="49" height="49" viewBox="0 0 49 49" fill="none" xmlns="http://www.w3.org/2000/svg">
<circle cx="23.03" cy="25.9699" r="23.03" fill="#E20010"/>
<path d="M25.8634 13.4536C26.7129 13.4654 27.5233 13.6266 28.2801 14.0115C28.9473 14.3531 29.4914 14.8307 29.8627 15.489C30.1041 15.9235 30.2624 16.3992 30.3296 16.8917C30.4676 17.8371 30.328 18.7518 30.0162 19.6461C29.833 20.1707 29.5794 20.6626 29.3048 21.1459C28.7454 22.1295 28.0265 22.9821 27.1904 23.7379C26.1177 24.7084 24.9414 25.558 23.6828 26.2711C23.1952 26.5464 22.6896 26.7776 22.1458 26.9191C21.8127 27.009 21.4687 27.0526 21.1237 27.0484C20.6694 27.0392 20.314 26.8323 20.0376 26.4838C19.7824 26.171 19.6509 25.7754 19.6681 25.3721C19.6711 25.2599 19.6873 25.1484 19.7163 25.04C19.8808 24.4557 20.1043 23.8959 20.4385 23.3855C20.6938 22.9957 20.9982 22.6495 21.3962 22.4018C21.8389 22.1262 22.3201 22.0084 22.8405 22.1221C23.0033 22.1602 23.1564 22.2314 23.2904 22.3313C23.633 22.5761 23.6151 22.9603 23.4506 23.2056C23.3096 23.4188 23.1521 23.6205 22.9794 23.8089C22.6868 24.1241 22.376 24.422 22.0727 24.7269C21.8043 24.9966 21.552 25.2797 21.3475 25.6023C21.2415 25.7696 21.1437 25.9403 21.1144 26.1412C21.0775 26.3932 21.2084 26.5649 21.4627 26.5885C21.5943 26.5992 21.7267 26.5859 21.8535 26.5492C22.2444 26.4412 22.6073 26.267 22.9637 26.0791C23.5134 25.7883 24.0208 25.4329 24.5153 25.058C25.1148 24.6035 25.6976 24.1295 26.2347 23.6024C26.8466 23.0026 27.3919 22.3508 27.8092 21.5986C28.1141 21.0494 28.3386 20.4694 28.4384 19.8473C28.5267 19.2994 28.4774 18.7656 28.2236 18.2626C28.1014 18.014 27.9102 17.8058 27.6729 17.6629C27.5633 17.5969 27.4425 17.5518 27.3164 17.5299C26.8578 17.4486 26.4141 17.5153 25.9781 17.6608C25.5236 17.8128 25.102 18.0345 24.6921 18.2767C23.8027 18.8044 22.9121 19.3318 22.0645 19.9259C21.6395 20.2235 21.2276 20.5402 20.8111 20.8497C20.4349 21.1295 20.0612 21.4125 19.6501 21.6412C19.3165 21.8312 18.9554 21.9682 18.5797 22.0474C18.1142 22.1419 17.6851 22.0541 17.2909 21.8011C16.8818 21.5385 16.5954 21.1782 16.4697 20.7014C16.3896 20.4004 16.4212 20.1019 16.4902 19.8047C16.5911 19.3684 16.7825 18.9732 17.0212 18.5986C17.6114 17.6731 18.3536 16.8881 19.2167 16.217C20.4957 15.2226 21.9031 14.4568 23.4254 13.9027C24.207 13.6168 25.0312 13.465 25.8634 13.4536Z" fill="white"/>
<path d="M15.3404 34.6114C15.3361 34.3209 15.303 34.0597 15.1351 33.8331C15.0534 33.7236 14.9402 33.6416 14.8107 33.598C14.4771 33.4784 14.1373 33.4925 13.806 33.5949C13.5404 33.677 13.2843 33.7889 13.0243 33.8887C12.973 33.9077 12.9263 33.9321 12.8642 33.9598C12.7418 33.6562 12.6214 33.3616 12.4954 33.0537C12.6779 32.9672 12.8498 32.8789 13.0272 32.8032C13.4357 32.6284 13.8594 32.5086 14.3049 32.4816C14.7504 32.4547 15.19 32.4783 15.5955 32.6944C16.0541 32.9372 16.3852 33.2877 16.5238 33.7979C16.5437 33.8647 16.5557 33.9336 16.5594 34.0032C16.5771 34.6656 16.601 35.3279 16.6038 35.9903C16.6056 36.443 16.5758 36.8959 16.5625 37.3489C16.5601 37.411 16.5343 37.4699 16.4901 37.5137C16.1732 37.8627 15.7854 38.1039 15.3461 38.2658C14.8749 38.4378 14.3732 38.5098 13.8728 38.4776C13.4108 38.4519 13.012 38.2628 12.6748 37.9489C12.3376 37.635 12.102 37.256 12.0363 36.7915C11.9465 36.1553 12.13 35.6033 12.5873 35.1491C12.8814 34.857 13.2437 34.7061 13.652 34.6527C14.1037 34.594 14.5569 34.6096 15.0101 34.6109L15.3404 34.6114ZM15.2811 35.6456C15.2545 35.6404 15.2276 35.6367 15.2006 35.6346C15.0466 35.6315 14.8908 35.6261 14.7361 35.6284C14.5505 35.6313 14.3642 35.632 14.1797 35.6495C13.989 35.6677 13.804 35.7234 13.6562 35.8507C13.4108 36.0621 13.3379 36.3383 13.3977 36.6496C13.4721 37.0345 13.6872 37.3035 14.0706 37.4179C14.2683 37.4771 14.4776 37.4859 14.6796 37.4436C14.8673 37.4092 15.0424 37.3252 15.1867 37.2003C15.2111 37.1814 15.2312 37.1574 15.2456 37.1301C15.26 37.1027 15.2683 37.0726 15.2701 37.0417C15.276 36.9065 15.2935 36.7715 15.2945 36.6362C15.2965 36.3265 15.2919 36.0167 15.2894 35.707C15.2878 35.6864 15.2851 35.6659 15.2811 35.6456Z" fill="white"/>
<path d="M30.777 35.6198C29.6761 35.6198 28.5957 35.5962 27.5001 35.6249C27.5058 35.7019 27.5091 35.7748 27.516 35.8459C27.5443 36.1366 27.6069 36.4192 27.7298 36.6858C27.8254 36.9033 27.9738 37.0935 28.1615 37.2391C28.4591 37.4652 28.7989 37.5022 29.1554 37.4562C29.45 37.4183 29.7243 37.3105 29.9979 37.2019C30.1234 37.1524 30.2479 37.0993 30.3829 37.0441C30.5112 37.3125 30.6369 37.5763 30.7678 37.8479C30.7437 37.8653 30.7211 37.8848 30.6959 37.8992C30.1622 38.2159 29.5888 38.4199 28.9696 38.4738C28.405 38.5228 27.8661 38.4302 27.3785 38.1178C27.0464 37.9051 26.8139 37.6046 26.6194 37.2684C26.3798 36.8501 26.2347 36.3845 26.1944 35.9041C26.1129 35.0283 26.2989 34.2129 26.7523 33.4579C27.0685 32.9331 27.5404 32.648 28.1312 32.5497C28.6742 32.4542 29.2336 32.5473 29.7164 32.8135C29.9869 32.9601 30.1752 33.1908 30.3305 33.4495C30.5358 33.7905 30.6438 34.1665 30.6957 34.556C30.7378 34.8702 30.7511 35.1881 30.7763 35.5056C30.7793 35.5382 30.777 35.572 30.777 35.6198ZM29.4426 34.6228C29.3787 34.33 29.335 34.0307 29.1433 33.7826C29.0472 33.6592 28.9122 33.572 28.7602 33.5352C28.356 33.4282 27.9497 33.6145 27.776 33.9971C27.7139 34.1334 27.6775 34.2814 27.6323 34.4249C27.612 34.4898 27.5989 34.5573 27.5828 34.6228C27.6913 34.6515 29.3314 34.6528 29.4431 34.6235L29.4426 34.6228Z" fill="white"/>
<path d="M23.5534 31.1471L24.8671 30.9438V32.5573C25.1586 32.5747 25.4363 32.5558 25.7155 32.5858V33.5797C25.4332 33.5843 25.1568 33.5759 24.8686 33.5933C24.8686 33.6493 24.8686 33.6911 24.8686 33.7329C24.8662 34.6896 24.8641 35.6464 24.8624 36.6033C24.8624 36.754 24.8745 36.9049 24.8881 37.055C24.9097 37.286 25.0377 37.4325 25.2615 37.4887C25.3849 37.52 25.5117 37.5377 25.6369 37.5616L25.7627 37.5873V38.4308C25.7486 38.4378 25.7335 38.4428 25.718 38.4457C25.3452 38.4624 24.9738 38.4526 24.6132 38.343C24.2611 38.2368 23.9676 38.0443 23.7684 37.7271C23.6552 37.5475 23.5978 37.3455 23.5729 37.1369C23.5578 37.0062 23.5504 36.8747 23.5508 36.7432C23.5508 34.9263 23.5518 33.1095 23.5539 31.2929L23.5534 31.1471Z" fill="white"/>
<path d="M31.4982 31.1482L32.7685 30.928V31.1033C32.7685 32.7534 32.7692 34.4035 32.7706 36.0537C32.7706 36.3557 32.7731 36.6578 32.7754 36.9601C32.7775 37.2583 32.8863 37.4102 33.1712 37.499C33.268 37.5258 33.3663 37.5469 33.4655 37.5622C33.5261 37.5735 33.5874 37.5788 33.6611 37.5878V38.4496C33.6542 38.4553 33.6461 38.4592 33.6375 38.4611C33.2766 38.4758 32.9174 38.4699 32.5665 38.3672C32.354 38.306 32.156 38.2023 31.9848 38.0623C31.6658 37.8013 31.5359 37.4516 31.5025 37.0571C31.4928 36.9416 31.4941 36.8249 31.4943 36.7089C31.4943 34.9037 31.4956 33.0987 31.4982 31.2939V31.1482Z" fill="white"/>
<path d="M21.0001 38.3734H19.7169C19.7154 38.3198 19.7128 38.2707 19.7126 38.2222C19.7112 37.4513 19.7101 36.6804 19.7092 35.9095C19.7077 35.2936 19.7039 34.6777 19.7041 34.0617C19.7045 33.9501 19.7131 33.8385 19.7298 33.7281C19.7488 33.6021 19.8147 33.4971 19.9063 33.4086C20.4104 32.9179 21.0142 32.6238 21.7028 32.4971C22.1343 32.4179 22.5765 32.4173 23.0082 32.4953C23.0311 32.4994 23.0539 32.5045 23.0762 32.5101C23.0873 32.513 23.0978 32.5184 23.1191 32.5266C22.9733 32.8971 22.7958 33.2513 22.6284 33.6013C22.4285 33.6013 22.2391 33.5954 22.0502 33.6026C21.7241 33.6135 21.4039 33.6932 21.1107 33.8367C21.0276 33.8775 20.9965 33.9283 20.9968 34.024C21.0004 35.4269 21.0012 36.8298 20.9993 38.2328L21.0001 38.3734Z" fill="white"/>
<path d="M18.77 32.6116C18.7836 34.5343 18.7687 36.4456 18.781 38.3688H17.5254C17.5223 38.3224 17.5161 38.2739 17.5161 38.2254C17.5161 37.0167 17.5161 35.8077 17.5161 34.5987C17.5161 34.0446 17.5207 33.4905 17.523 32.9365C17.523 32.8944 17.523 32.8523 17.523 32.7994L18.77 32.6116Z" fill="white"/>
<path d="M18.0904 32.0458C17.4773 32.0443 17.0933 31.434 17.3477 30.8579C17.504 30.5045 17.7724 30.3703 18.1596 30.3726C18.6786 30.377 19.0632 30.893 18.9395 31.3973C18.8407 31.8002 18.5174 32.0469 18.0904 32.0458Z" fill="white"/>
</svg>
