<svg width="20" height="24" viewBox="0 0 20 24" fill="none" xmlns="http://www.w3.org/2000/svg">
<path d="M16.6483 4.1015L16.2513 19.5171C16.2233 20.6062 15.3177 21.4664 14.2285 21.4384L5.76252 21.2204C4.67346 21.1923 3.81326 20.2867 3.8413 19.1976L4.23827 3.78194C4.26631 2.69287 5.17192 1.83267 6.26104 1.86071L14.7271 2.07872C15.8162 2.10677 16.6763 3.01237 16.6483 4.1015Z" fill="#BDBDBD"/>
<path d="M9.55744 15.3786C11.4855 15.784 13.3772 14.5496 13.7826 12.6215C14.188 10.6934 12.9536 8.80179 11.0255 8.39639C9.09744 7.99099 7.20578 9.22537 6.80038 11.1534C6.39499 13.0815 7.62936 14.9732 9.55744 15.3786Z" fill="#F5F7FA"/>
</svg>
