<svg width="13" height="11" viewBox="0 0 13 11" fill="none" xmlns="http://www.w3.org/2000/svg">
<path d="M11.7839 8.93923H0.645461C0.323501 8.93923 0.0625 8.67823 0.0625 8.35627V1.25093C0.0625 0.92897 0.323501 0.667969 0.645461 0.667969H11.7839C12.1058 0.667969 12.3668 0.92897 12.3668 1.25093V8.35627C12.3668 8.67823 12.1058 8.93923 11.7839 8.93923Z" fill="#FF5364"/>
<path d="M0.0625 2.06934H12.3668V3.35104H0.0625V2.06934Z" fill="#3A556A"/>
<path d="M0.517578 6.04381C0.517578 5.94901 0.594032 5.87256 0.687304 5.87256H1.93962C2.03442 5.87256 2.11088 5.94901 2.11088 6.04381C2.11088 6.13709 2.03442 6.21354 1.93962 6.21354H0.687304C0.594032 6.21354 0.517578 6.13709 0.517578 6.04381Z" fill="#EDEDED"/>
<path d="M2.69727 6.04381C2.69727 5.94901 2.77372 5.87256 2.86699 5.87256H4.11931C4.21411 5.87256 4.29057 5.94901 4.29057 6.04381C4.29057 6.13709 4.21411 6.21354 4.11931 6.21354H2.86699C2.77372 6.21354 2.69727 6.13709 2.69727 6.04381Z" fill="#EDEDED"/>
<path d="M8.34188 7.36461C8.34188 7.45789 8.26543 7.53434 8.17063 7.53434H0.687304C0.594032 7.53434 0.517578 7.45789 0.517578 7.36461C0.517578 7.26981 0.594032 7.19336 0.687304 7.19336H8.17063C8.26543 7.19336 8.34188 7.26981 8.34188 7.36461Z" fill="#EDEDED"/>
<path d="M9.98226 6.81561V5.44786C9.98226 4.82712 9.52672 4.37657 8.89928 4.37657C8.27184 4.37657 7.81629 4.82712 7.81629 5.44786V6.81561H7.23828V5.44786C7.23828 4.53203 7.98332 3.78687 8.89928 3.78687C9.81524 3.78687 10.5603 4.53203 10.5603 5.44786V6.81561H9.98226Z" fill="#EBF0F3"/>
<path d="M10.9179 10.6015H6.88201C6.71849 10.6015 6.58594 10.4689 6.58594 10.3054V6.97771C6.58594 6.8142 6.71849 6.68164 6.88201 6.68164H10.9179C11.0814 6.68164 11.214 6.8142 11.214 6.97771V10.3054C11.214 10.4689 11.0814 10.6015 10.9179 10.6015Z" fill="#344D5B"/>
<path d="M8.9009 8.4585C8.71078 8.4585 8.55664 8.61263 8.55664 8.80276C8.55664 8.93171 8.62839 9.04277 8.73334 9.10175V9.47788C8.73334 9.57041 8.80836 9.64543 8.90089 9.64543H8.9009C8.99344 9.64543 9.06844 9.57041 9.06844 9.47788V9.10175C9.1734 9.04278 9.24514 8.93173 9.24514 8.80276C9.24514 8.61263 9.09102 8.4585 8.9009 8.4585Z" fill="#19282F"/>
</svg>
