<svg width="24" height="24" viewBox="0 0 24 24" fill="none" xmlns="http://www.w3.org/2000/svg">
<path d="M21.8906 19.781H2.10938C0.946219 19.781 0 20.7272 0 21.8904V23.2966C0 23.6853 0.314484 23.9998 0.703125 23.9998H23.2969C23.6855 23.9998 24 23.6853 24 23.2966V21.8904C24 20.7272 23.0538 19.781 21.8906 19.781Z" fill="#BDBDBD"/>
<path d="M15.9549 12.7029H13.67C13.3839 14.5692 13.3805 16.5092 13.6594 18.3748H15.9655C16.2444 16.5092 16.241 14.5692 15.9549 12.7029Z" fill="#BDBDBD"/>
<path d="M21.6266 12.7029H19.3418C19.0557 14.5692 19.0523 16.5092 19.3313 18.3748H21.6374C21.9163 16.5093 21.9125 14.5692 21.6266 12.7029Z" fill="#BDBDBD"/>
<path d="M10.3299 12.7029H8.04495C7.75887 14.5692 7.75545 16.5092 8.0344 18.3748H10.3405C10.6194 16.5092 10.616 14.5692 10.3299 12.7029Z" fill="#BDBDBD"/>
<path d="M4.6583 12.7029H2.37356C2.08758 14.5692 2.08378 16.5093 2.36264 18.3748H4.66884C4.9478 16.5092 4.94438 14.5692 4.6583 12.7029Z" fill="#BDBDBD"/>
<path d="M12.373 0.107121C12.1451 -0.035707 11.8553 -0.035707 11.6273 0.107121L0.548767 7.07814H23.4517L12.373 0.107121ZM12.0002 5.67189C11.6119 5.67189 11.2971 5.35708 11.2971 4.96876C11.2971 4.58045 11.6119 4.26564 12.0002 4.26564C12.3885 4.26564 12.7033 4.58045 12.7033 4.96876C12.7033 5.35708 12.3885 5.67189 12.0002 5.67189Z" fill="#BDBDBD"/>
<path d="M0 8.48413V9.18726C0 10.3504 0.946219 11.2966 2.10938 11.2966H21.8906C23.0538 11.2966 24 10.3504 24 9.18726V8.48413H0Z" fill="#BDBDBD"/>
</svg>
