<svg width="30" height="30" viewBox="0 0 30 30" fill="none" xmlns="http://www.w3.org/2000/svg">
<g clip-path="url(#clip0)">
<path d="M20.3086 14.9893H27.5071V18.4193H20.3086V14.9893Z" fill="#2F4859"/>
<path d="M29.1624 13.7168C29.1624 13.7168 30.0177 13.8072 30.0002 14.1839C29.9239 15.6085 29.5886 17.0072 29.0105 18.3115H27.8926L29.1624 13.7168Z" fill="#3A556A"/>
<path d="M23.9463 16.04C22.4518 16.04 21.2402 17.2515 21.2402 18.7461C21.2402 20.2406 22.4517 21.4521 23.9463 21.4521C25.4407 21.4521 26.6523 20.2406 26.6523 18.7461C26.6523 18.7451 26.6523 18.7441 26.6523 18.7432C26.6523 17.2503 25.442 16.04 23.9492 16.04C23.9482 16.04 23.9473 16.04 23.9463 16.04Z" fill="#3A556A"/>
<path d="M23.9463 17.1406C23.0596 17.139 22.3395 17.8565 22.3379 18.7432C22.3363 19.6299 23.0537 20.35 23.9405 20.3516C24.8272 20.3532 25.5473 19.6358 25.5489 18.749C25.5489 18.7471 25.5489 18.7451 25.5489 18.7432C25.5489 17.8582 24.8314 17.1406 23.9463 17.1406Z" fill="#EBF0F3"/>
<path d="M23.9453 18.209C23.6422 18.209 23.3965 18.4547 23.3965 18.7578C23.3965 19.0608 23.6422 19.3065 23.9453 19.3065C24.2483 19.3065 24.494 19.0608 24.494 18.7578C24.494 18.4546 24.2484 18.209 23.9453 18.209Z" fill="#3A556A"/>
<path d="M28.5851 18.288L27.6218 18.4807C27.4182 18.5204 27.2148 18.412 27.1343 18.2209L26.5505 16.7613C26.3565 16.2878 25.8945 15.9794 25.3829 15.9819H22.7177C22.1691 15.9795 21.6829 16.3345 21.5179 16.8577L20.8816 18.9303C20.7122 19.4616 20.2132 19.8182 19.6556 19.806L10.1247 19.6075C9.54946 19.5952 9.05617 19.1935 8.92786 18.6325L8.79071 18.0487C8.6589 17.4795 8.15178 17.0766 7.56757 17.0766H5.0045C4.57162 17.0745 4.16812 17.295 3.93614 17.6604L3.41068 18.5303C3.18338 18.9026 2.77846 19.1294 2.34232 19.1287H0.298828C0.298828 19.1287 0.298828 18.0778 0.509035 15.6578C0.719241 13.2378 4.23969 12.8205 4.23969 12.8205V12.765C4.23969 12.7387 4.2397 12.7008 4.26011 12.657V12.6073C4.36818 12.1928 4.73008 11.2178 5.95322 10.0356C7.58205 8.4593 14.4186 8.35711 16.3073 8.72203C16.6981 8.81182 17.064 8.98731 17.3787 9.23579C17.6027 9.77603 17.8753 10.2948 18.1931 10.7858C18.6193 11.3521 19.317 11.7024 19.5154 12.0557C19.5797 12.1724 19.7432 12.2863 19.7753 12.3476C19.8081 12.4132 19.8742 12.4557 19.9475 12.4586C23.0395 12.6079 26.1124 13.028 29.131 13.7138C30.1088 15.0828 28.5851 18.288 28.5851 18.288Z" fill="#FCD462"/>
<path d="M0.338705 18.3351L0.35912 17.8477C0.1847 17.8458 0.0337807 17.9685 1.23725e-05 18.1396V18.8431C-0.00158999 19.035 0.152652 19.1918 0.344461 19.1934H0.347369H1.33989V18.3468C1.00636 18.3708 0.671462 18.3669 0.338705 18.3351Z" fill="#3A556A"/>
<path d="M27.8318 17.8789H28.8565C29.0354 17.8789 29.1805 18.0239 29.1805 18.2029V18.4219C29.1805 18.6008 29.0355 18.7459 28.8565 18.7459H27.8318C27.6529 18.7459 27.5078 18.6009 27.5078 18.4219V18.2029C27.5079 18.0239 27.6529 17.8789 27.8318 17.8789Z" fill="#3A556A"/>
<path d="M18.8684 12.616L16.682 9.66765C16.4629 9.37193 16.1215 9.19163 15.7537 9.17721L12.2157 9.04297C9.25869 9.09258 7.79911 9.76397 7.09555 10.3186C6.32197 10.9287 6.26072 11.5184 6.25781 11.5447V15.5818C6.25941 15.9902 6.59093 16.3204 6.99929 16.3203H8.5581C9.14456 16.3217 9.66574 16.6942 9.85708 17.2486L10.3066 18.5476H18.3137C18.6947 18.546 19.0027 18.2367 19.0027 17.8557V13.0275C19.0034 12.8795 18.9563 12.7351 18.8684 12.616ZM9.93014 17.234C9.7261 16.6504 9.17643 16.2586 8.5581 16.2561H6.99929C6.6333 16.2562 6.33662 15.9595 6.33657 15.5935C6.33657 15.5896 6.33657 15.5857 6.33663 15.5817V11.5504C6.33663 11.5154 6.41835 10.9491 7.15104 10.3828C7.88374 9.81655 9.27904 9.18309 12.1778 9.13056L12.5894 18.4892H10.3621L9.93014 17.234ZM18.9268 17.8674C18.9268 18.206 18.6524 18.4804 18.3138 18.4804H12.6624L12.2567 9.12172L15.7597 9.25596C16.1062 9.26415 16.4296 9.43228 16.6354 9.71133L18.7926 12.6626C18.8718 12.7678 18.9148 12.8958 18.9152 13.0275L18.9268 17.8674Z" fill="#F7BE56"/>
<path d="M12.7574 10.0971L12.8128 12.1143C12.8222 12.2783 12.9579 12.4065 13.1223 12.4062H17.209C17.3799 12.4046 17.5171 12.2648 17.5155 12.0939C17.5149 12.0371 17.4988 11.9815 17.4688 11.9333L16.2077 9.95412C16.1517 9.86623 16.0551 9.8124 15.9509 9.81104L13.0668 9.77602C12.906 9.76552 12.767 9.88742 12.7565 10.0482C12.7554 10.0646 12.7557 10.0809 12.7574 10.0971Z" fill="#3A556A"/>
<path d="M11.5152 12.1091L11.4102 10.095C11.4102 9.93378 11.2795 9.80303 11.1183 9.80303C10.2425 9.75051 7.51028 9.77384 6.81841 11.9836C6.79337 12.0664 6.80286 12.1559 6.8447 12.2317L6.95859 12.4273C7.01455 12.5342 7.13052 12.5957 7.25052 12.582L11.2322 12.4331C11.3984 12.4192 11.5237 12.2759 11.5152 12.1091Z" fill="#3A556A"/>
<path d="M19.8059 12.3481C19.2804 11.56 18.0544 9.826 17.4093 9.23633C17.3743 9.23633 16.9219 9.23633 17.0473 9.50487C17.1465 9.72671 18.0019 10.6725 18.5069 11.3935C18.8265 11.8425 19.2818 12.1771 19.8059 12.3481Z" fill="#3A556A"/>
<path d="M6.25878 16.041C4.7643 16.041 3.55273 17.2525 3.55273 18.747C3.55273 20.2416 4.76424 21.4531 6.25878 21.4531C7.75331 21.4531 8.96482 20.2416 8.96482 18.747C8.96482 18.7461 8.96482 18.7451 8.96482 18.7441C8.96482 17.2513 7.75456 16.041 6.26168 16.041C6.26073 16.041 6.25978 16.041 6.25878 16.041Z" fill="#3A556A"/>
<path d="M6.25785 17.1406C5.37115 17.1406 4.65234 17.8595 4.65234 18.7461C4.65234 19.6328 5.37121 20.3516 6.25785 20.3516C7.14449 20.3516 7.86336 19.6328 7.86336 18.7461C7.86336 18.7452 7.86336 18.7442 7.86336 18.7432C7.86336 17.8582 7.14586 17.1406 6.26076 17.1406C6.25981 17.1406 6.25886 17.1406 6.25785 17.1406Z" fill="#EBF0F3"/>
<path d="M6.25777 18.209C5.95474 18.209 5.70898 18.4547 5.70898 18.7578C5.70898 19.0608 5.95474 19.3065 6.25777 19.3065C6.56079 19.3065 6.80655 19.0608 6.80655 18.7578C6.80655 18.4546 6.56091 18.209 6.25777 18.209Z" fill="#3A556A"/>
</g>
<defs>
<clipPath id="clip0">
<rect width="30" height="30" fill="white"/>
</clipPath>
</defs>
</svg>
