<svg width="14" height="14" viewBox="0 0 14 14" fill="none" xmlns="http://www.w3.org/2000/svg">
<path d="M14 4.98602C14 4.75962 13.8165 4.5761 13.5901 4.5761H13.0202C12.8341 4.5761 12.6592 4.48734 12.5494 4.33717L11.1503 2.42452C11.0404 2.27435 10.8655 2.1856 10.6794 2.1856H10.1518C9.82959 2.1856 9.56843 1.92443 9.56843 1.60226V1.16659C9.56843 0.84442 9.30726 0.583252 8.98509 0.583252H5.007C4.68484 0.583252 4.42367 0.844419 4.42367 1.16659V1.60229C4.42367 1.92446 4.1625 2.18562 3.84034 2.18562H3.31302C3.12622 2.18562 2.95071 2.27509 2.84097 2.42626L1.45493 4.33549C1.34518 4.48666 1.16968 4.57612 0.982873 4.57612H0.409924C0.183529 4.57612 0 4.75965 0 4.98605V5.16468C0 5.29242 0.10355 5.39597 0.231286 5.39597C0.420226 5.39597 0.529451 5.61024 0.418448 5.76314L0.115603 6.18027C0.0543285 6.26467 0.0213355 6.3663 0.0213491 6.47059L0.0221815 12.8303C0.0222236 13.1524 0.283378 13.4135 0.605515 13.4135H2.69146C3.01363 13.4135 3.2748 13.1524 3.2748 12.8302V12.3595C3.2748 12.0373 3.53596 11.7761 3.85813 11.7761H10.1563C10.4784 11.7761 10.7396 12.0373 10.7396 12.3595V12.8337C10.7396 13.1558 11.0008 13.417 11.3229 13.417H13.4088C13.731 13.417 13.9921 13.1558 13.9921 12.8337V6.47029C13.9921 6.3657 13.9588 6.26384 13.8971 6.17943L13.5887 5.7579C13.4787 5.60754 13.5861 5.39594 13.7724 5.39594C13.8981 5.39594 14 5.29405 14 5.16836V4.98602ZM3.25889 3.2461C3.36863 3.09494 3.54414 3.00547 3.73094 3.00547H10.2634C10.4495 3.00547 10.6244 3.09423 10.7342 3.24439L12.0983 5.10913C12.3803 5.49452 12.105 6.03688 11.6275 6.03688H2.37718C1.90066 6.03688 1.62518 5.49647 1.90513 5.11085L3.25889 3.2461ZM1.42451 8.49525C1.10234 8.49525 0.841176 8.23408 0.841176 7.91191V7.44006C0.841176 7.1179 1.10234 6.85673 1.42451 6.85673H3.26963C3.47867 6.85673 3.67172 6.96858 3.77569 7.14993L4.04622 7.62178C4.26917 8.01066 3.98842 8.49525 3.54015 8.49525H1.42451ZM9.15851 9.73194C9.15851 9.95833 8.97499 10.1419 8.74859 10.1419H5.24351C5.01711 10.1419 4.83358 9.95833 4.83358 9.73194C4.83358 9.50554 5.01711 9.32201 5.24351 9.32201H8.74859C8.97499 9.32201 9.15851 9.50554 9.15851 9.73194ZM13.1722 7.91191C13.1722 8.23408 12.9111 8.49525 12.5889 8.49525H10.49C10.0418 8.49525 9.761 8.01067 9.98395 7.62179L10.2545 7.14993C10.3584 6.96858 10.5515 6.85673 10.7605 6.85673H12.5889C12.9111 6.85673 13.1722 7.1179 13.1722 7.44006V7.91191Z" fill="#262628"/>
</svg>
