<svg width="46" height="46" viewBox="0 0 46 46" fill="none" xmlns="http://www.w3.org/2000/svg">
<path d="M0 19.08C0 12.4726 0 9.16885 1.26546 6.63626C2.42698 4.31169 4.31169 2.42698 6.63626 1.26546C9.16885 0 12.4726 0 19.08 0H26.92C33.5274 0 36.8312 0 39.3637 1.26546C41.6883 2.42698 43.573 4.31169 44.7345 6.63626C46 9.16885 46 12.4726 46 19.08V26.92C46 33.5274 46 36.8312 44.7345 39.3637C43.573 41.6883 41.6883 43.573 39.3637 44.7345C36.8312 46 33.5274 46 26.92 46H19.08C12.4726 46 9.16885 46 6.63626 44.7345C4.31169 43.573 2.42698 41.6883 1.26546 39.3637C0 36.8312 0 33.5274 0 26.92V19.08Z" fill="#F3F4F6"/>
<rect x="16.636" y="27.9498" width="16" height="2" rx="1" transform="rotate(-45 16.636 27.9498)" fill="#262628"/>
<rect opacity="0.3" x="18.0503" y="16.636" width="16" height="2" rx="1" transform="rotate(45 18.0503 16.636)" fill="#262628"/>
</svg>
