<svg width="14" height="14" viewBox="0 0 14 14" fill="none" xmlns="http://www.w3.org/2000/svg">
<g clip-path="url(#clip0)">
<path d="M10.9512 9.04683C10.3968 9.80832 9.49868 10.3043 8.48679 10.3043H7.06695C6.57648 10.3043 6.15879 9.99288 6.00063 9.55705C5.8054 9.49881 5.61395 9.42322 5.42713 9.33039C5.0315 9.13382 4.67226 8.86751 4.35603 8.5376C2.30477 8.98824 0.769531 10.816 0.769531 13.0027V13.2885C0.769531 13.6814 1.08805 13.9999 1.48094 13.9999H12.5186C12.9115 13.9999 13.23 13.6814 13.23 13.2885V13.0027C13.2299 11.3135 12.3137 9.83838 10.9512 9.04683Z" fill="#FF5364"/>
<path d="M3.59912 7.07139C3.90488 7.07139 4.17101 6.90193 4.30889 6.65185C4.31251 6.66175 4.3162 6.67159 4.31991 6.68142C4.32101 6.68438 4.3221 6.68733 4.3232 6.69029C4.64665 7.54167 5.27601 8.2554 6.1059 8.56724C6.30661 8.24833 6.66152 8.03623 7.0662 8.03623H8.48603C8.62765 8.03623 8.75947 7.99627 8.87502 7.93167C9.06909 7.82316 9.24361 7.54786 9.33373 7.40194C9.47795 7.16843 9.58969 6.92109 9.68877 6.65142C9.74444 6.75254 9.82101 6.8405 9.91275 6.90942V7.25757C9.91275 8.04427 9.27273 8.68432 8.486 8.68432H7.06617C6.79775 8.68432 6.58014 8.90193 6.58014 9.17035C6.58014 9.4388 6.79775 9.65638 7.06617 9.65638H8.486C9.80871 9.65638 10.8848 8.58028 10.8848 7.25757V6.90942C11.0816 6.76162 11.2088 6.52637 11.2088 6.26136V4.79581V4.23383C11.2088 3.96337 11.0762 3.72407 10.8725 3.57693C10.7146 1.57815 9.03763 0 6.99895 0C4.96023 0 3.28331 1.57815 3.12537 3.5769C2.9217 3.72404 2.78906 3.96337 2.78906 4.2338V6.2613C2.78906 6.70996 3.15354 7.07139 3.59912 7.07139ZM6.99895 0.972089C8.50814 0.972089 9.75294 2.12543 9.89843 3.597C9.80292 3.67214 9.72468 3.76817 9.67077 3.87836C9.21215 2.68184 8.18838 1.84879 6.99892 1.84879C5.78381 1.84879 4.77646 2.71047 4.32886 3.87358C4.32826 3.87517 4.32768 3.87678 4.32707 3.8784C4.27316 3.7682 4.19492 3.67217 4.0994 3.59704C4.24499 2.12543 5.48975 0.972089 6.99895 0.972089Z" fill="#FF5364"/>
</g>
<defs>
<clipPath id="clip0">
<rect width="14" height="14" fill="white"/>
</clipPath>
</defs>
</svg>
