<svg width="30" height="26" viewBox="0 0 30 26" fill="none" xmlns="http://www.w3.org/2000/svg">
<path d="M30.0001 11.3741C30.0001 11.144 29.7534 10.9983 29.5518 11.1092L23.6732 14.3458L23.1289 16.4931L23.6732 18.6439L26.8367 20.93L30.0001 22.1272V11.3741Z" fill="#454D58"/>
<path d="M23.6732 19.7322L29.5518 22.9688C29.7534 23.0798 30.0001 22.9339 30.0001 22.7039V22.1269L23.6732 18.6436L23.1289 19.238L23.6732 19.7322Z" fill="#3C434C"/>
<path d="M2.27637 13.0204L0.431895 12.1467C0.23127 12.0516 0 12.1979 0 12.42V16.4827L1.13818 16.4878L2.27637 15.4043L2.8207 14.3025L2.27637 13.0204Z" fill="#A6AEC4"/>
<path d="M0.431895 17.3668L2.27637 16.493L2.8207 15.9486L2.27637 15.4043L0 16.4827V17.0934C0 17.3155 0.23127 17.4618 0.431895 17.3668Z" fill="#959DB0"/>
<path d="M4.67809 15.4044L3.47674 15.9487L2.27539 15.4044V13.0205H4.67809L5.22248 14.3026L4.67809 15.4044Z" fill="#454D58"/>
<path d="M2.27539 16.493H4.67809L5.22248 15.9486L4.67809 15.4043H2.27539V16.493Z" fill="#3C434C"/>
<path d="M17.7652 10.3179C20.5068 10.3179 23.0344 7.66736 23.0344 5.02103C22.7619 2.35139 20.5068 0.268555 17.7652 0.268555C15.0236 0.268555 12.7686 2.35144 12.4961 5.02103C12.496 7.78619 15.0236 10.3179 17.7652 10.3179Z" fill="#454D58"/>
<path d="M8.8988 10.3179C11.2874 10.3179 12.571 8.33055 12.571 6.60549C12.3077 4.81334 10.7641 3.4375 8.8988 3.4375C7.03347 3.4375 5.48994 4.81334 5.22656 6.60549C5.2265 8.49725 6.58101 10.3179 8.8988 10.3179Z" fill="#454D58"/>
<path d="M6.31064 25.1873H22.0428C23.4074 25.1873 23.6737 23.9127 23.6737 23.012V12.4933C23.6737 11.5925 22.9435 10.8623 22.0428 10.8623H6.31064C5.40988 10.8623 4.67969 11.5925 4.67969 12.4933V23.012C4.67969 23.9127 5.09471 25.1873 6.31064 25.1873Z" fill="#A6AEC4"/>
<path d="M9.92713 19.5409H18.4245C19.0293 19.5409 19.0293 18.7257 19.0293 18.3917V14.5316C19.0293 14.1975 18.7585 13.9268 18.4245 13.9268H9.92713C9.59309 13.9268 9.32227 14.1976 9.32227 14.5316V18.3917C9.32227 18.7257 9.32227 19.5409 9.92713 19.5409Z" fill="#BED8FB"/>
<path d="M17.7662 6.87984C19.1387 6.87984 19.5441 5.81853 19.5441 5.02078C19.3114 4.25971 18.6035 3.70605 17.7662 3.70605C16.9289 3.70605 16.2211 4.25965 15.9883 5.02078C15.9883 5.84461 16.4518 6.87984 17.7662 6.87984Z" fill="#A6AEC4"/>
<path d="M7.85156 6.60514C7.85156 7.06492 8.00912 7.78586 8.89863 7.78586C9.85307 7.78586 9.94576 7.00516 9.94576 6.60514C9.74889 6.22721 9.35426 5.96875 8.89863 5.96875C8.44307 5.96875 8.04844 6.22727 7.85156 6.60514Z" fill="#A6AEC4"/>
<path d="M22.0428 24.6427H6.31064C5.40988 24.6427 4.67969 23.9125 4.67969 23.0117V24.1005C4.67969 25.0012 5.40988 25.7314 6.31064 25.7314H22.0428C22.9435 25.7314 23.6737 25.0012 23.6737 24.1005V23.0117C23.6737 23.9125 22.9435 24.6427 22.0428 24.6427Z" fill="#959DB0"/>
<path d="M18.4243 18.9965H9.92707C9.59303 18.9965 9.32227 18.7257 9.32227 18.3916V19.4803C9.32227 19.8144 9.59309 20.0852 9.92707 20.0852H18.4244C18.7584 20.0852 19.0293 19.8144 19.0293 19.4803V18.3916C19.0292 18.7257 18.7584 18.9965 18.4243 18.9965Z" fill="#A3CAF7"/>
<path d="M8.89793 9.77346C7.0326 9.77346 5.48906 8.39762 5.22568 6.60547C5.19955 6.78318 5.18555 6.96482 5.18555 7.1498C5.18555 9.20012 6.84762 10.8622 8.89793 10.8622C10.9482 10.8622 12.6103 9.20012 12.6103 7.1498C12.6103 6.96482 12.5963 6.78318 12.5702 6.60547C12.3067 8.39756 10.7632 9.77346 8.89793 9.77346Z" fill="#3C434C"/>
<path d="M8.89947 7.2418C8.44391 7.2418 8.04928 6.98334 7.8524 6.60547C7.7675 6.76848 7.71875 6.95334 7.71875 7.1498C7.71875 7.80189 8.24738 8.33053 8.89947 8.33053C9.55156 8.33053 10.0802 7.80189 10.0802 7.1498C10.0802 6.95328 10.0315 6.76842 9.9466 6.60547C9.74967 6.98334 9.35504 7.2418 8.89947 7.2418Z" fill="#959DB0"/>
<path d="M17.7656 9.77396C15.024 9.77396 12.7689 7.69107 12.4964 5.02148C12.4781 5.20043 12.4688 5.38201 12.4688 5.56582C12.4688 8.49117 14.8402 10.8627 17.7656 10.8627C20.691 10.8627 23.0625 8.49123 23.0625 5.56582C23.0625 5.38201 23.0531 5.20043 23.0348 5.02148C22.7622 7.69107 20.5071 9.77396 17.7656 9.77396Z" fill="#3C434C"/>
<path d="M17.7653 6.33621C16.928 6.33621 16.2202 5.78261 15.9874 5.02148C15.9347 5.19369 15.9062 5.37639 15.9062 5.56582C15.9062 6.59255 16.7386 7.42488 17.7653 7.42488C18.7921 7.42488 19.6244 6.59255 19.6244 5.56582C19.6244 5.37639 19.5958 5.19363 19.5432 5.02148C19.3104 5.78261 18.6026 6.33621 17.7653 6.33621Z" fill="#959DB0"/>
</svg>
