<svg width="20" height="24" viewBox="0 0 20 24" fill="none" xmlns="http://www.w3.org/2000/svg">
<path d="M19 0H2.5C2.11169 0 1.79688 0.314812 1.79688 0.703125V3.79688H1C0.611687 3.79688 0.296875 4.11169 0.296875 4.5C0.296875 4.88831 0.611687 5.20312 1 5.20312H1.79688V7.54688H1C0.611687 7.54688 0.296875 7.86169 0.296875 8.25C0.296875 8.63831 0.611687 8.95312 1 8.95312H1.79688V11.2969H1C0.611687 11.2969 0.296875 11.6117 0.296875 12C0.296875 12.3883 0.611687 12.7031 1 12.7031H1.79688V15.0469H1C0.611687 15.0469 0.296875 15.3617 0.296875 15.75C0.296875 16.1383 0.611687 16.4531 1 16.4531H1.79688V18.7969H1C0.611687 18.7969 0.296875 19.1117 0.296875 19.5C0.296875 19.8883 0.611687 20.2031 1 20.2031H1.79688V23.2969C1.79688 23.6852 2.11169 24 2.5 24H19C19.3883 24 19.7031 23.6852 19.7031 23.2969V0.703125C19.7031 0.314812 19.3883 0 19 0ZM14.5 17.5781C14.1117 17.5781 13.7969 17.2633 13.7969 16.875C13.7969 15.0086 12.6572 13.0781 10.75 13.0781C8.8428 13.0781 7.70312 15.0086 7.70312 16.875C7.70312 17.2633 7.38831 17.5781 7 17.5781C6.61169 17.5781 6.29688 17.2633 6.29688 16.875C6.29688 15.0886 7.11245 13.2377 8.60594 12.2927C7.88252 11.6817 7.42188 10.7688 7.42188 9.75C7.42188 7.91489 8.91489 6.42188 10.75 6.42188C12.5851 6.42188 14.0781 7.91489 14.0781 9.75C14.0781 10.7688 13.6175 11.6817 12.8941 12.2927C14.3876 13.2377 15.2031 15.0883 15.2031 16.875C15.2031 17.2633 14.8883 17.5781 14.5 17.5781Z" fill="#FF5364"/>
</svg>
