<svg width="243" height="157" viewBox="0 0 243 157" fill="none" xmlns="http://www.w3.org/2000/svg">
<path d="M223.892 20.8531C223.892 9.40342 214.611 0.122559 203.162 0.122559H20.73C9.28086 0.123074 0 9.40445 0 20.8531V39.0064H223.892V20.8531Z" fill="black"/>
<path d="M211.647 99.024L198 99.0198L197.996 85.3725C197.996 84.6613 197.419 84.085 196.708 84.085H186.408C186.066 84.085 185.738 84.2204 185.496 84.462C185.255 84.7035 185.12 85.0306 185.12 85.3725L185.124 99.0157L171.481 99.0116C170.77 99.0116 170.193 99.5879 170.193 100.299V110.601C170.193 110.942 170.328 111.269 170.57 111.511C170.812 111.752 171.139 111.888 171.481 111.888L185.128 111.893L185.132 125.54C185.132 125.881 185.269 126.209 185.509 126.45C185.751 126.692 186.078 126.827 186.42 126.827H196.721C197.432 126.827 198.008 126.251 198.008 125.54L198.004 111.897L211.647 111.901C211.988 111.901 212.316 111.765 212.558 111.525C212.799 111.283 212.935 110.956 212.935 110.614V100.313C212.935 99.5992 212.358 99.024 211.647 99.024Z" fill="black"/>
<path d="M191.603 54.084C182.22 54.084 173.416 56.6138 165.836 61.024H0V123.914C0 135.363 9.28086 144.645 20.73 144.645H158.36C167.329 152.27 178.938 156.877 191.604 156.877C219.944 156.877 243.001 133.821 243.001 105.48C242.999 77.1409 219.944 54.084 191.603 54.084ZM76.5553 116.233C76.5553 117.702 75.364 118.892 73.8957 118.892H32.8873C31.4185 118.892 30.2267 117.701 30.2267 116.233V108.142C30.2267 106.672 31.4185 105.482 32.8873 105.482H73.8957C75.3645 105.482 76.5553 106.672 76.5553 108.142V116.233ZM191.603 138.058C173.61 138.058 159.027 123.473 159.027 105.482C159.027 87.4899 173.61 72.9058 191.603 72.9058C209.595 72.9058 224.179 87.4904 224.179 105.482C224.179 123.473 209.595 138.058 191.603 138.058Z" fill="black"/>
</svg>
