<?xml version="1.0" encoding="utf-8"?>
<!-- Generator: Adobe Illustrator 23.1.1, SVG Export Plug-In . SVG Version: 6.00 Build 0)  -->
<svg version="1.1" id="Layer_1" xmlns="http://www.w3.org/2000/svg" xmlns:xlink="http://www.w3.org/1999/xlink" x="0px" y="0px"
	 viewBox="0 0 24 24" style="enable-background:new 0 0 24 24;" xml:space="preserve">
<style type="text/css">
	.st0{fill:#EFB215;}
	.st1{fill:#DDE3E9;}
	.st2{fill:#FFFFFF;}
	.st3{fill:#FAFAFA;}
</style>
<path class="st0" d="M13.5,7.4c-0.1-0.1-0.2-0.1-0.3-0.1H9.8c-0.1,0-0.2,0-0.3,0.1c-0.6,0.6-6,6.3-6,8.7c0,3.5,3.6,6.3,8,6.3
	c4.4,0,8-2.8,8-6.3C19.5,13.7,14.1,8,13.5,7.4z"/>
<path class="st0" d="M16.9,2.2c-0.7-0.8-2.5,0.2-3.6,0.9c-0.5-0.7-1.2-1.5-1.8-1.5c-0.6,0-1.3,0.8-1.8,1.5c-1-0.7-2.9-1.7-3.6-0.9
	C6,2.4,5.9,2.7,5.9,3c0.1,1.6,3.3,4.1,3.7,4.4c0.1,0.1,0.2,0.1,0.3,0.1h3.4c0.1,0,0.2,0,0.3-0.1C13.8,7.1,17,4.5,17.1,3
	C17.2,2.7,17.1,2.4,16.9,2.2z"/>
<path class="st1" d="M14.9,7.5H8.2c-0.2,0-0.4-0.2-0.4-0.4c0-0.2,0.2-0.4,0.4-0.4h6.7c0.2,0,0.4,0.2,0.4,0.4
	C15.3,7.3,15.1,7.5,14.9,7.5z"/>
<path class="st2" d="M13.2,17.8h-1l-1.9-3v3h-1v-4.6h1l1.9,3v-3h1V17.8z"/>
<path class="st3" d="M8.2,15c0-0.2,0.1-0.3,0.3-0.3l5.2,0c0.2,0,0.3,0.1,0.3,0.3c0,0.2-0.1,0.3-0.3,0.3l-5.2,0
	C8.3,15.3,8.2,15.2,8.2,15z"/>
<path class="st3" d="M8.2,16.3c0-0.2,0.1-0.3,0.3-0.3l5.2,0c0.2,0,0.3,0.1,0.3,0.3c0,0.2-0.1,0.3-0.3,0.3l-5.2,0
	C8.3,16.6,8.2,16.5,8.2,16.3z"/>
</svg>
