<svg width="23" height="24" viewBox="0 0 23 24" fill="none" xmlns="http://www.w3.org/2000/svg">
<path d="M22.4524 19.6364H18.619C16.2034 19.6364 14.2381 17.6789 14.2381 15.2729C14.2381 12.8668 16.2034 10.9093 18.619 10.9093H22.4524C22.7551 10.9093 23 10.6653 23 10.3638V8.7275C23 7.5837 22.1093 6.6535 20.9839 6.56329L17.8388 1.09179C17.5474 0.585754 17.0767 0.224073 16.5136 0.0738875C15.9531 -0.0752748 15.367 0.00306481 14.8654 0.293873L4.08403 6.5457H2.19049C0.982426 6.5457 0 7.52418 0 8.7275V21.8182C0 23.0215 0.982375 24 2.19049 24H20.8095C22.0176 24 23 23.0215 23 21.8182V20.1819C23 19.8804 22.7551 19.6364 22.4524 19.6364ZM18.518 4.46981L19.7112 6.5457H14.9382L18.518 4.46981ZM6.26081 6.5457L15.4167 1.23666C15.6644 1.0923 15.9536 1.05395 16.2302 1.12748C16.5099 1.20204 16.743 1.38209 16.888 1.63403L16.8891 1.63603L8.42276 6.5457H6.26081Z" fill="white"/>
</svg>
