<svg width="24" height="24" viewBox="0 0 24 24" fill="none" xmlns="http://www.w3.org/2000/svg">
<g clip-path="url(#clip0)">
<path d="M21.8574 19.2819V2.14285L21.2035 2.19768C18.5808 2.41448 16.0083 3.04143 13.58 4.05594L12.4289 4.5339V21.6052L13.2672 21.2568C15.78 20.2113 18.4406 19.5644 21.1528 19.3393L21.8574 19.2819Z" fill="white"/>
<path d="M24.0001 4.67657H22.7144V19.6766C22.7152 19.9001 22.5438 20.0867 22.3209 20.1051L21.2234 20.1951C20.9065 20.2213 20.5905 20.2537 20.2758 20.2924C20.1737 20.3048 20.0722 20.3211 19.9707 20.3353C19.7585 20.3636 19.5467 20.3923 19.3356 20.4257C19.2125 20.4454 19.0903 20.4684 18.9677 20.49C18.7787 20.523 18.5894 20.5559 18.4008 20.5931C18.2721 20.6189 18.1436 20.6478 18.0124 20.6756C17.8329 20.7137 17.6533 20.7526 17.475 20.7951C17.3413 20.8269 17.208 20.8606 17.0751 20.8945C16.9016 20.9374 16.729 20.9836 16.5566 21.0318C16.4224 21.0686 16.2883 21.1075 16.1546 21.1469C15.9832 21.1975 15.8143 21.249 15.645 21.303C15.5126 21.3459 15.3799 21.3888 15.2478 21.4315C15.0783 21.4886 14.9097 21.5476 14.7416 21.6085C14.6131 21.6552 14.4844 21.702 14.353 21.7512C14.2942 21.7736 14.2358 21.7975 14.1772 21.8203H24.0001V4.67657Z" fill="white"/>
<path d="M2.79703 2.19768L2.14308 2.14285V19.2832L2.90375 19.3479C5.61434 19.5745 8.27262 20.2253 10.7813 21.2764L11.5717 21.6052V4.5339L10.4218 4.05636C7.99325 3.04164 5.42036 2.41448 2.79703 2.19768Z" fill="white"/>
<path d="M0 4.67657V21.8194H9.82973C9.777 21.7987 9.72426 21.7765 9.67111 21.7569C9.54848 21.7102 9.42481 21.6656 9.30134 21.6206C9.12723 21.5574 8.95333 21.4959 8.77797 21.4371C8.65116 21.3942 8.52393 21.3526 8.39649 21.312C8.22259 21.2548 8.04806 21.2011 7.87333 21.1508C7.74463 21.1132 7.61614 21.0753 7.48765 21.0393C7.31145 20.9905 7.13484 20.9443 6.9578 20.8989C6.82931 20.8658 6.70061 20.8328 6.5692 20.802C6.38965 20.7591 6.20905 20.7198 6.02867 20.681C5.90018 20.6532 5.77148 20.625 5.643 20.5992C5.45612 20.5624 5.26842 20.5293 5.08071 20.4965C4.95766 20.4749 4.83461 20.4536 4.71136 20.4316C4.50419 20.3987 4.29639 20.3709 4.08859 20.3429C3.98354 20.3288 3.87933 20.3121 3.77448 20.3002C3.46017 20.2621 3.14586 20.2297 2.83154 20.2029L1.67787 20.1051C1.45543 20.0861 1.28488 19.8997 1.28571 19.6766V4.67657H0Z" fill="white"/>
</g>
<defs>
<clipPath id="clip0">
<rect width="24" height="24" fill="white"/>
</clipPath>
</defs>
</svg>
