<svg width="24" height="24" viewBox="0 0 24 24" fill="none" xmlns="http://www.w3.org/2000/svg">
<path d="M23.4782 12.5217H9.91299C9.62484 12.5217 9.39124 12.2881 9.39124 12C9.39124 11.7118 9.62484 11.4782 9.91299 11.4782H23.4782C23.7663 11.4782 23.9999 11.7118 23.9999 12C23.9999 12.2881 23.7663 12.5217 23.4782 12.5217Z" fill="#CAC9CF"/>
<path d="M9.91305 13.5652C9.04861 13.5652 8.34784 12.8644 8.34784 12C8.34784 11.1355 9.04861 10.4348 9.91305 10.4348H16.6957V2.60868C16.6956 1.16794 15.5277 0 14.0869 0H2.60868C1.16794 0 0 1.16794 0 2.60868V21.3913C0 22.832 1.16794 24 2.60868 24H14.0869C15.5277 24 16.6956 22.832 16.6956 21.3913V13.5652H9.91305Z" fill="#9FA2B4"/>
<path d="M19.3043 16.6958C19.0162 16.6964 18.7822 16.4631 18.7816 16.175C18.7814 16.0361 18.8365 15.9028 18.9349 15.8047L22.7405 12.0002L18.9349 8.19564C18.7347 7.9884 18.7405 7.65809 18.9477 7.45788C19.1499 7.26257 19.4705 7.26257 19.6727 7.45788L23.8466 11.6318C24.0502 11.8355 24.0502 12.1658 23.8466 12.3695L19.6727 16.5434C19.5748 16.641 19.4424 16.6958 19.3043 16.6958Z" fill="#CAC9CF"/>
</svg>
