<svg width="46" height="46" viewBox="0 0 46 46" fill="none" xmlns="http://www.w3.org/2000/svg">
<path d="M0 19.08C0 12.4726 0 9.16885 1.26546 6.63626C2.42698 4.31169 4.31169 2.42698 6.63626 1.26546C9.16885 0 12.4726 0 19.08 0H26.92C33.5274 0 36.8312 0 39.3637 1.26546C41.6883 2.42698 43.573 4.31169 44.7345 6.63626C46 9.16885 46 12.4726 46 19.08V26.92C46 33.5274 46 36.8312 44.7345 39.3637C43.573 41.6883 41.6883 43.573 39.3637 44.7345C36.8312 46 33.5274 46 26.92 46H19.08C12.4726 46 9.16885 46 6.63626 44.7345C4.31169 43.573 2.42698 41.6883 1.26546 39.3637C0 36.8312 0 33.5274 0 26.92V19.08Z" fill="#F3F4F6"/>
<path d="M23 35C24.6557 35 25.9986 33.657 25.9986 32H20.0014C20.0014 33.657 21.3444 35 23 35ZM33.0964 27.9823C32.1908 27.0092 30.4963 25.5453 30.4963 20.75C30.4963 17.1078 27.9425 14.1922 24.4991 13.4769V12.5C24.4991 11.6717 23.8278 11 23 11C22.1722 11 21.501 11.6717 21.501 12.5V13.4769C18.0575 14.1922 15.5038 17.1078 15.5038 20.75C15.5038 25.5453 13.8093 27.0092 12.9036 27.9823C12.6224 28.2847 12.4977 28.6461 12.5 29C12.5052 29.7687 13.1085 30.5 14.0047 30.5H31.9953C32.8916 30.5 33.4953 29.7687 33.5 29C33.5024 28.6461 33.3777 28.2842 33.0964 27.9823Z" fill="#C5C7CD"/>
<circle cx="30.5" cy="14" r="5.25" fill="#C41426" stroke="#F7F8FC" stroke-width="1.5"/>
</svg>
