<?xml version="1.0" encoding="utf-8"?>
<!-- Generator: Adobe Illustrator 23.1.1, SVG Export Plug-In . SVG Version: 6.00 Build 0)  -->
<svg version="1.1" id="Layer_1" xmlns="http://www.w3.org/2000/svg" xmlns:xlink="http://www.w3.org/1999/xlink" x="0px" y="0px"
	 viewBox="0 0 50 50" style="enable-background:new 0 0 50 50;" xml:space="preserve">
<style type="text/css">
	.st0{fill:#F5F7FA;}
	.st1{fill:#C4C4C4;}
</style>
<circle class="st0" cx="25" cy="25" r="25"/>
<path class="st1" d="M25,17c2.2,0,4,1.8,4,4s-1.8,4-4,4s-4-1.8-4-4S22.8,17,25,17z M25,33c0,0,8,0,8-2c0-2.4-3.9-5-8-5s-8,2.6-8,5
	C17,33,25,33,25,33z"/>
<path class="st1" d="M34,14c2.2,0,4,1.8,4,4s-1.8,4-4,4s-4-1.8-4-4S31.8,14,34,14z M34,30c0,0,8,0,8-2c0-2.4-3.9-5-8-5s-8,2.6-8,5
	C26,30,34,30,34,30z"/>
<path class="st1" d="M15,14c2.2,0,4,1.8,4,4s-1.8,4-4,4s-4-1.8-4-4S12.8,14,15,14z M15,30c0,0,8,0,8-2c0-2.4-3.9-5-8-5s-8,2.6-8,5
	C7,30,15,30,15,30z"/>
</svg>
