<svg width="24" height="24" viewBox="0 0 24 24" fill="none" xmlns="http://www.w3.org/2000/svg">
<path fill-rule="evenodd" clip-rule="evenodd" d="M4 9.67472L10.8803 13.647C10.9543 13.6898 11.032 13.7207 11.1111 13.7403V21.4444L4.4907 17.5265C4.18655 17.3465 4 17.0193 4 16.6659V9.67472ZM20 9.56912V16.6659C20 17.0193 19.8134 17.3465 19.5093 17.5265L12.8889 21.4444V13.6728C12.905 13.6648 12.921 13.6562 12.9368 13.647L20 9.56912Z" fill="#9593A0"/>
<path opacity="0.3" fill-rule="evenodd" clip-rule="evenodd" d="M4.21613 7.74669C4.30017 7.64057 4.40624 7.55087 4.52991 7.48501L11.5299 3.75665C11.8238 3.60014 12.1762 3.60014 12.4701 3.75665L19.4701 7.48501C19.5654 7.53578 19.6503 7.60071 19.7227 7.67642L12.0479 12.1074C11.9975 12.1366 11.951 12.1699 11.9086 12.2068C11.8662 12.1699 11.8196 12.1366 11.7692 12.1074L4.21613 7.74669Z" fill="#9593A0"/>
</svg>
