<svg width="46" height="46" viewBox="0 0 46 46" fill="none" xmlns="http://www.w3.org/2000/svg">
<path d="M0 19.08C0 12.4726 0 9.16885 1.26546 6.63626C2.42698 4.31169 4.31169 2.42698 6.63626 1.26546C9.16885 0 12.4726 0 19.08 0H26.92C33.5274 0 36.8312 0 39.3637 1.26546C41.6883 2.42698 43.573 4.31169 44.7345 6.63626C46 9.16885 46 12.4726 46 19.08V26.92C46 33.5274 46 36.8312 44.7345 39.3637C43.573 41.6883 41.6883 43.573 39.3637 44.7345C36.8312 46 33.5274 46 26.92 46H19.08C12.4726 46 9.16885 46 6.63626 44.7345C4.31169 43.573 2.42698 41.6883 1.26546 39.3637C0 36.8312 0 33.5274 0 26.92V19.08Z" fill="#F3F4F6"/>
<path opacity="0.3" d="M25.2929 27.7071C24.9024 27.3166 24.9024 26.6834 25.2929 26.2929C25.6834 25.9024 26.3166 25.9024 26.7071 26.2929L30.7071 30.2929C31.0976 30.6834 31.0976 31.3166 30.7071 31.7071C30.3166 32.0976 29.6834 32.0976 29.2929 31.7071L25.2929 27.7071Z" fill="#262628"/>
<path fill-rule="evenodd" clip-rule="evenodd" d="M15 22C15 25.866 18.134 29 22 29C25.866 29 29 25.866 29 22C29 18.134 25.866 15 22 15C18.134 15 15 18.134 15 22ZM27 22C27 24.7614 24.7614 27 22 27C19.2386 27 17 24.7614 17 22C17 19.2386 19.2386 17 22 17C24.7614 17 27 19.2386 27 22Z" fill="#262628"/>
</svg>
