<?xml version="1.0" encoding="utf-8"?>
<!-- Generator: Adobe Illustrator 23.1.1, SVG Export Plug-In . SVG Version: 6.00 Build 0)  -->
<svg version="1.1" id="Layer_1" xmlns="http://www.w3.org/2000/svg" xmlns:xlink="http://www.w3.org/1999/xlink" x="0px" y="0px"
	 viewBox="0 0 41 41" style="enable-background:new 0 0 41 41;" xml:space="preserve">
<style type="text/css">
	.st0{fill:#F5F7FA;}
</style>
<circle class="st0" cx="20.5" cy="20.5" r="20"/>
<path d="M20.5,15.9c-1.3,0-2.6,0.6-3.5,1.6c-0.8,0.9-1.2,2-1.2,3.1c0,2.6,2.1,4.7,4.7,4.7c1.2,0,2.3-0.4,3.2-1.2
	c0.9-0.8,1.4-1.9,1.5-3c0-0.1,0-0.2,0-0.4C25.2,18,23.1,15.9,20.5,15.9z M23.9,20.9c-0.2,1.8-1.6,3.1-3.4,3.1
	c-1.9,0-3.4-1.5-3.4-3.4c0-0.8,0.3-1.7,0.9-2.3c0.7-0.7,1.6-1.1,2.6-1.1c1.9,0,3.4,1.5,3.4,3.4C23.9,20.7,23.9,20.8,23.9,20.9z"/>
<path d="M31.9,19.4c0,0-1.4,0-1.9,0c-0.1,0-0.1-0.1-0.1-0.1c-0.6-4.3-3.9-7.6-8.2-8.2c-0.1,0-0.2,0-0.2-0.1c0-0.5,0-1.9,0-1.9
	c0-0.3-0.2-0.6-0.6-0.6h-1.1c-0.3,0-0.6,0.2-0.6,0.6c0,0,0,1.4,0,1.9c0,0.1-0.1,0.1-0.2,0.1c-2.3,0.3-4.4,1.4-5.8,3.1
	c-1.2,1.4-2.1,3.2-2.3,5.1c0,0,0,0.1-0.1,0.1c-0.5,0-1.9,0-1.9,0c-0.3,0-0.6,0.2-0.6,0.6v1.1c0,0.3,0.2,0.6,0.6,0.6c0,0,1.4,0,1.9,0
	c0.1,0,0.1,0.1,0.1,0.1c0.5,4.3,3.9,7.7,8.2,8.3c0,0,0.1,0,0.1,0.1c0,0.5,0,1.9,0,1.9c0,0.3,0.2,0.6,0.6,0.6h1.1
	c0.3,0,0.6-0.2,0.6-0.6c0,0,0-1.4,0-1.9c0-0.1,0.1-0.1,0.1-0.1c4.3-0.6,7.7-4,8.2-8.3c0,0,0-0.1,0.1-0.1c0.5,0,1.9,0,1.9,0
	c0.3,0,0.6-0.2,0.6-0.6v-1.1C32.5,19.6,32.3,19.4,31.9,19.4z M21.6,28.1c0-0.1,0-0.3,0-0.3c0-0.3-0.2-0.6-0.6-0.6h-1.1
	c-0.3,0-0.6,0.2-0.6,0.6c0,0,0,0.2,0,0.3c0,0.1-0.1,0.1-0.2,0.1c-3.3-0.6-5.9-3.2-6.4-6.5c0,0,0-0.1,0-0.1h0.3
	c0.3,0,0.6-0.2,0.6-0.6v-1.1c0-0.3-0.2-0.6-0.6-0.6h-0.3c-0.1,0-0.1,0,0-0.1c0.2-1.5,0.9-2.9,1.9-3.9c1.1-1.3,2.7-2.2,4.5-2.5
	c0.1,0,0.2,0,0.2,0c0,0.1,0,0.3,0,0.3c0,0.3,0.2,0.6,0.6,0.6h1.1c0.3,0,0.6-0.2,0.6-0.6c0,0,0-0.2,0-0.3c0-0.1,0.1,0,0.2,0
	c3.2,0.5,5.8,3.1,6.3,6.3c0,0.1,0,0.2-0.1,0.2c-0.1,0-0.3,0-0.3,0c-0.3,0-0.6,0.2-0.6,0.6v1.1c0,0.3,0.2,0.6,0.6,0.6
	c0,0,0.2,0,0.3,0c0.1,0,0.1,0.1,0.1,0.1c-0.5,3.3-3.1,5.9-6.4,6.4C21.7,28.2,21.6,28.2,21.6,28.1z"/>
</svg>
