<svg width="32" height="32" viewBox="0 0 32 32" fill="none" xmlns="http://www.w3.org/2000/svg">
<path d="M16 0C7.16343 0 0 7.16343 0 16C0 24.8365 7.16343 31.9999 16 31.9999C24.8365 31.9999 31.9999 24.8365 31.9999 16C31.9906 7.16738 24.8326 0.00944196 16 0ZM16 29.7142C8.42578 29.7142 2.28569 23.5742 2.28569 16C2.28569 8.42578 8.42578 2.28569 16 2.28569C23.5742 2.28569 29.7142 8.42578 29.7142 16C29.7061 23.5708 23.5708 29.7061 16 29.7142Z" fill="white"/>
<path d="M24.7805 9.47756C24.3376 9.0498 23.6355 9.0498 23.1927 9.47756L12.5721 20.0981L8.80862 16.3346C8.37014 15.8806 7.64659 15.8681 7.19264 16.3066C6.73862 16.7451 6.7261 17.4686 7.16458 17.9225C7.17376 17.9321 7.18313 17.9414 7.19264 17.9506L11.7641 22.522C12.2103 22.9682 12.9338 22.9682 13.3801 22.522L24.8087 11.0935C25.2471 10.6395 25.2345 9.91604 24.7805 9.47756Z" fill="white"/>
</svg>
