<?xml version="1.0" encoding="utf-8"?>
<!-- Generator: Adobe Illustrator 23.1.1, SVG Export Plug-In . SVG Version: 6.00 Build 0)  -->
<svg version="1.1" id="Layer_1" xmlns="http://www.w3.org/2000/svg" xmlns:xlink="http://www.w3.org/1999/xlink" x="0px" y="0px"
	 viewBox="0 0 18.3 12.6" style="enable-background:new 0 0 18.3 12.6;" xml:space="preserve">
<style type="text/css">
	.st0{fill:#FFFFFF;}
	.st1{fill:#3A556A;}
	.st2{fill:#EDEDED;}
</style>
<path class="st0" d="M16.5,11.5H1.8c-0.4,0-0.8-0.3-0.8-0.8V1.4c0-0.4,0.3-0.8,0.8-0.8h14.7c0.4,0,0.8,0.3,0.8,0.8v9.4
	C17.3,11.2,16.9,11.5,16.5,11.5z"/>
<path class="st1" d="M1.1,2.5h16.2v1.7H1.1V2.5z"/>
<path class="st2" d="M1.7,7.7c0-0.1,0.1-0.2,0.2-0.2h1.7c0.1,0,0.2,0.1,0.2,0.2c0,0.1-0.1,0.2-0.2,0.2H1.9C1.8,7.9,1.7,7.8,1.7,7.7z
	"/>
<path class="st2" d="M4.5,7.7c0-0.1,0.1-0.2,0.2-0.2h1.7c0.1,0,0.2,0.1,0.2,0.2c0,0.1-0.1,0.2-0.2,0.2H4.8C4.6,7.9,4.5,7.8,4.5,7.7z
	"/>
<path class="st2" d="M12,9.4c0,0.1-0.1,0.2-0.2,0.2H1.9c-0.1,0-0.2-0.1-0.2-0.2c0-0.1,0.1-0.2,0.2-0.2h9.9C11.9,9.2,12,9.3,12,9.4z"
	/>
</svg>
