<?xml version="1.0" encoding="utf-8"?>
<!-- Generator: Adobe Illustrator 23.1.1, SVG Export Plug-In . SVG Version: 6.00 Build 0)  -->
<svg version="1.1" xmlns="http://www.w3.org/2000/svg" xmlns:xlink="http://www.w3.org/1999/xlink" x="0px" y="0px"
	 viewBox="0 0 41 41" style="enable-background:new 0 0 41 41;" xml:space="preserve">
<style type="text/css">
	.st0{fill:#F5F7FA;}
	.st1{display:none;}
	.st2{clip-path:url(#SVGID_2_);}
</style>
<g id="Layer_1">
	<circle class="st0" cx="20.5" cy="20.5" r="20"/>
	<path class="st1" d="M20.5,15.9c-1.3,0-2.6,0.6-3.5,1.6c-0.8,0.9-1.2,2-1.2,3.1c0,2.6,2.1,4.7,4.7,4.7c1.2,0,2.3-0.4,3.2-1.2
		c0.9-0.8,1.4-1.9,1.5-3c0-0.1,0-0.2,0-0.4C25.2,18,23.1,15.9,20.5,15.9z M23.9,20.9c-0.2,1.8-1.6,3.1-3.4,3.1
		c-1.9,0-3.4-1.5-3.4-3.4c0-0.8,0.3-1.7,0.9-2.3c0.7-0.7,1.6-1.1,2.6-1.1c1.9,0,3.4,1.5,3.4,3.4C23.9,20.7,23.9,20.8,23.9,20.9z"/>
	<path class="st1" d="M31.9,19.4c0,0-1.4,0-1.9,0c-0.1,0-0.1-0.1-0.1-0.1c-0.6-4.3-3.9-7.6-8.2-8.2c-0.1,0-0.2,0-0.2-0.1
		c0-0.5,0-1.9,0-1.9c0-0.3-0.2-0.6-0.6-0.6h-1.1c-0.3,0-0.6,0.2-0.6,0.6c0,0,0,1.4,0,1.9c0,0.1-0.1,0.1-0.2,0.1
		c-2.3,0.3-4.4,1.4-5.8,3.1c-1.2,1.4-2.1,3.2-2.3,5.1c0,0,0,0.1-0.1,0.1c-0.5,0-1.9,0-1.9,0c-0.3,0-0.6,0.2-0.6,0.6v1.1
		c0,0.3,0.2,0.6,0.6,0.6c0,0,1.4,0,1.9,0c0.1,0,0.1,0.1,0.1,0.1c0.5,4.3,3.9,7.7,8.2,8.3c0,0,0.1,0,0.1,0.1c0,0.5,0,1.9,0,1.9
		c0,0.3,0.2,0.6,0.6,0.6h1.1c0.3,0,0.6-0.2,0.6-0.6c0,0,0-1.4,0-1.9c0-0.1,0.1-0.1,0.1-0.1c4.3-0.6,7.7-4,8.2-8.3c0,0,0-0.1,0.1-0.1
		c0.5,0,1.9,0,1.9,0c0.3,0,0.6-0.2,0.6-0.6v-1.1C32.5,19.6,32.3,19.4,31.9,19.4z M21.6,28.1c0-0.1,0-0.3,0-0.3
		c0-0.3-0.2-0.6-0.6-0.6h-1.1c-0.3,0-0.6,0.2-0.6,0.6c0,0,0,0.2,0,0.3c0,0.1-0.1,0.1-0.2,0.1c-3.3-0.6-5.9-3.2-6.4-6.5
		c0,0,0-0.1,0-0.1h0.3c0.3,0,0.6-0.2,0.6-0.6v-1.1c0-0.3-0.2-0.6-0.6-0.6h-0.3c-0.1,0-0.1,0,0-0.1c0.2-1.5,0.9-2.9,1.9-3.9
		c1.1-1.3,2.7-2.2,4.5-2.5c0.1,0,0.2,0,0.2,0c0,0.1,0,0.3,0,0.3c0,0.3,0.2,0.6,0.6,0.6h1.1c0.3,0,0.6-0.2,0.6-0.6c0,0,0-0.2,0-0.3
		c0-0.1,0.1,0,0.2,0c3.2,0.5,5.8,3.1,6.3,6.3c0,0.1,0,0.2-0.1,0.2c-0.1,0-0.3,0-0.3,0c-0.3,0-0.6,0.2-0.6,0.6v1.1
		c0,0.3,0.2,0.6,0.6,0.6c0,0,0.2,0,0.3,0c0.1,0,0.1,0.1,0.1,0.1c-0.5,3.3-3.1,5.9-6.4,6.4C21.7,28.2,21.6,28.2,21.6,28.1z"/>
</g>
<g id="Layer_2">
	<g>
		<defs>
			<rect id="SVGID_1_" x="9.6" y="8.1" width="24" height="24"/>
		</defs>
		<clipPath id="SVGID_2_">
			<use xlink:href="#SVGID_1_"  style="overflow:visible;"/>
		</clipPath>
		<g class="st2">
			<path d="M20.5,32.1c6,0,10.8-4.8,10.8-10.8c0-1.8-0.5-3.6-1.3-5.1c-0.1,0-0.2,0-0.3,0c-0.1,0-0.1,0-0.2,0l-1.4-0.1l-1,1
				c0.8,1.2,1.2,2.6,1.2,4.2c0,4.4-3.6,7.9-7.9,7.9c-4.4,0-7.9-3.6-7.9-7.9c0-4.4,3.6-7.9,7.9-7.9c1.5,0,3,0.4,4.2,1.2l0.9-0.9
				l-0.1-1.6c0-0.1,0-0.3,0-0.4c-1.5-0.8-3.2-1.2-5-1.2c-6,0-10.8,4.8-10.8,10.8C9.7,27.2,14.5,32.1,20.5,32.1z"/>
			<path d="M20.5,18.5c0.1,0,0.1,0,0.2,0l2-2l0,0C22,16.1,21.3,16,20.5,16c-2.9,0-5.3,2.4-5.3,5.3s2.4,5.3,5.3,5.3
				c2.9,0,5.3-2.4,5.3-5.3c0-0.8-0.2-1.6-0.5-2.2l0,0l-2,2c0,0.1,0,0.1,0,0.2c0,1.5-1.2,2.8-2.8,2.8c-1.5,0-2.8-1.2-2.8-2.8
				C17.7,19.7,18.9,18.5,20.5,18.5z"/>
			<path d="M31.6,11.6l0.6-0.6c0.3-0.3,0.3-0.8,0-1.1l-0.4-0.4c-0.1-0.1-0.3-0.2-0.5-0.2c-0.2,0-0.4,0.1-0.5,0.2L30,10.2l-0.2-2
				c0-0.1-0.1-0.2-0.3-0.2c-0.1,0-0.1,0-0.2,0.1L26.5,11c-0.3,0.3-0.4,0.6-0.4,1l0,0.1l0.1,1.8l-1,1l-1.9,1.9l0,0l-1.8,1.8l-0.8,0.8
				c-0.1,0.1-0.2,0.2-0.2,0.4l-0.1,0.6c0,0.4,0.3,0.7,0.6,0.7c0,0,0,0,0,0l0.7,0c0.2,0,0.3-0.1,0.4-0.2l0.8-0.8l1.8-1.8l0,0l1.9-1.9
				l1.1-1.1l1.6,0.1l0.1,0c0,0,0.1,0,0.1,0c0.3,0,0.7-0.1,0.9-0.4l2.9-2.9c0.2-0.2,0.1-0.4-0.2-0.4L31.6,11.6z"/>
		</g>
	</g>
</g>
</svg>
