<svg width="32" height="32" viewBox="0 0 32 32" fill="none" xmlns="http://www.w3.org/2000/svg">
<path d="M4.9995 21.5C4.90092 21.5 4.80456 21.4707 4.72262 21.4159L3.22263 20.4159C3.15415 20.3703 3.09801 20.3084 3.05917 20.2359C3.02034 20.1633 3.00001 20.0823 3 20V19C3 18.8674 3.05268 18.7402 3.14645 18.6464C3.24021 18.5527 3.36739 18.5 3.5 18.5C3.63261 18.5 3.75979 18.5527 3.85355 18.6464C3.94732 18.7402 4 18.8674 4 19V19.7324L5.27738 20.584C5.36669 20.6436 5.43447 20.7303 5.47068 20.8313C5.50689 20.9324 5.50962 21.0424 5.47846 21.1452C5.44729 21.2479 5.3839 21.3378 5.29764 21.4018C5.21138 21.4657 5.10685 21.5001 4.9995 21.5Z" fill="#CDCCC8"/>
<path d="M1.5 5H5.5V8H1.5V5Z" fill="#DDE2E7"/>
<path d="M4.5 5H5.36931V8H4.5V5Z" fill="white"/>
<path d="M1.5 11H9.5V19H1.5V11Z" fill="#C7830B"/>
<path d="M25.5 13.5H22.5C22.1022 13.5 21.7206 13.342 21.4393 13.0607C21.158 12.7794 21 12.3978 21 12C21 11.6022 21.158 11.2206 21.4393 10.9393C21.7206 10.658 22.1022 10.5 22.5 10.5H25.5V13.5Z" fill="white"/>
<path d="M24.5508 10.5H25.4998V13.5H24.5508V10.5Z" fill="#DDE2E7"/>
<path d="M17 23.5H9.5V19H18.3693V20.5L17 22V23.5Z" fill="#007AF6"/>
<path d="M19 11.5H20.5L22.5 13L22 15L20 13.5H19V11.5Z" fill="#CDCCC8"/>
<path d="M17 11.5H19V13.5H17C16.7348 13.5 16.4804 13.3946 16.2929 13.2071C16.1054 13.0196 16 12.7652 16 12.5C16 12.2348 16.1054 11.9804 16.2929 11.7929C16.4804 11.6054 16.7348 11.5 17 11.5Z" fill="#7A4922"/>
<path d="M26.5 27.396C28.433 27.396 30 25.829 30 23.896C30 21.963 28.433 20.396 26.5 20.396C24.567 20.396 23 21.963 23 23.896C23 25.829 24.567 27.396 26.5 27.396Z" fill="#CDCCC8"/>
<path d="M26.5 25.396C27.3284 25.396 28 24.7244 28 23.896C28 23.0676 27.3284 22.396 26.5 22.396C25.6716 22.396 25 23.0676 25 23.896C25 24.7244 25.6716 25.396 26.5 25.396Z" fill="#EAE9E4"/>
<path d="M24.7266 19.4576C25.7346 18.9908 26.8867 18.9436 27.9295 19.3262C28.9723 19.7089 29.8204 20.4901 30.2872 21.498L30.4828 21.9204L22.8813 25.4403L22.6858 25.018C22.219 24.01 22.1718 22.8578 22.5545 21.815C22.9372 20.7722 23.7185 19.9241 24.7265 19.4573L24.7266 19.4576Z" fill="white"/>
<path d="M5.5 11.5C5.36739 11.5 5.24021 11.4473 5.14645 11.3536C5.05268 11.2598 5 11.1326 5 11V5C5 4.86739 5.05268 4.74021 5.14645 4.64645C5.24021 4.55268 5.36739 4.5 5.5 4.5C5.63261 4.5 5.75979 4.55268 5.85355 4.64645C5.94732 4.74021 6 4.86739 6 5V11C6 11.1326 5.94732 11.2598 5.85355 11.3536C5.75979 11.4473 5.63261 11.5 5.5 11.5Z" fill="#EAE9E4"/>
<path d="M1.5 11H9.5V13H1.5V11Z" fill="#EE9D0D"/>
<path d="M9.5 17H16.8544C17.2562 17 17.6415 17.1596 17.9256 17.4437C18.2097 17.7278 18.3693 18.1132 18.3693 18.5149V19H9.5V17Z" fill="#7A4922"/>
<path d="M8.86914 27.5C10.8021 27.5 12.3691 25.933 12.3691 24C12.3691 22.067 10.8021 20.5 8.86914 20.5C6.93614 20.5 5.36914 22.067 5.36914 24C5.36914 25.933 6.93614 27.5 8.86914 27.5Z" fill="#CDCCC8"/>
<path d="M8.86914 25.5C9.69757 25.5 10.3691 24.8284 10.3691 24C10.3691 23.1716 9.69757 22.5 8.86914 22.5C8.04071 22.5 7.36914 23.1716 7.36914 24C7.36914 24.8284 8.04071 25.5 8.86914 25.5Z" fill="#EAE9E4"/>
<path d="M8.86914 19C10.0626 19 11.2072 19.4741 12.0511 20.318C12.895 21.1619 13.3691 22.3065 13.3691 23.5V24H4.36914V23.5C4.36914 22.3065 4.84325 21.1619 5.68716 20.318C6.53107 19.4741 7.67567 19 8.86914 19Z" fill="white"/>
<path d="M20.4998 23.5L23.9998 19L21.3691 14L21.8691 12.5H23.9998L27.4998 19L22.4998 25.5H14.3691L13.3066 23.5H20.4998Z" fill="#DDE2E7"/>
<path d="M4.5 13H6.5V15H4.5V13Z" fill="#CB2527"/>
<path d="M6.5 17.5H4.5C4.36739 17.5 4.24021 17.4473 4.14645 17.3536C4.05268 17.2598 4 17.1326 4 17C4 16.8674 4.05268 16.7402 4.14645 16.6464C4.24021 16.5527 4.36739 16.5 4.5 16.5H6.5C6.63261 16.5 6.75979 16.5527 6.85355 16.6464C6.94732 16.7402 7 16.8674 7 17C7 17.1326 6.94732 17.2598 6.85355 17.3536C6.75979 17.4473 6.63261 17.5 6.5 17.5Z" fill="#936108"/>
<path d="M4.5 11H6.5V13H4.5V11Z" fill="#EA2B2D"/>
</svg>
