<?xml version="1.0" encoding="utf-8"?>
<!-- Generator: Adobe Illustrator 23.1.1, SVG Export Plug-In . SVG Version: 6.00 Build 0)  -->
<svg version="1.1" id="Layer_1" xmlns="http://www.w3.org/2000/svg" xmlns:xlink="http://www.w3.org/1999/xlink" x="0px" y="0px"
	 viewBox="0 0 41 41" style="enable-background:new 0 0 41 41;" xml:space="preserve">
<style type="text/css">
	.st0{fill:#F5F7FA;}
	.st1{clip-path:url(#SVGID_2_);}
	.st2{fill:#A05863;}
</style>
<circle class="st0" cx="20.5" cy="20.5" r="20.1"/>
<g>
	<defs>
		<rect id="SVGID_1_" x="12.5" y="12.5" width="16" height="16"/>
	</defs>
	<clipPath id="SVGID_2_">
		<use xlink:href="#SVGID_1_"  style="overflow:visible;"/>
	</clipPath>
	<g class="st1">
		<path class="st2" d="M25.7,13.6l-1.9-1.1L22,13.6l-1.9-1.1l-1.9,1.1l-1.4-0.8v12.9h8.5v1.9c0,0.5,0.4,1,1,1c0.5,0,1-0.4,1-1V12.8
			L25.7,13.6z M17.9,21.1v-0.9H22v0.9H17.9z M26,19h-8.1V18H26V19z M26,16.9h-8.1V16H26V16.9z"/>
		<path class="st2" d="M24.3,27.5v-0.9H13.8v0.9c0,0.5,0.4,1,1,1h9.7C24.4,28.2,24.3,27.9,24.3,27.5z"/>
	</g>
</g>
</svg>
