<?xml version="1.0" encoding="utf-8"?>
<!-- Generator: Adobe Illustrator 23.1.1, SVG Export Plug-In . SVG Version: 6.00 Build 0)  -->
<svg version="1.1" id="Layer_1" xmlns="http://www.w3.org/2000/svg" xmlns:xlink="http://www.w3.org/1999/xlink" x="0px" y="0px"
	 viewBox="0 0 41 41" style="enable-background:new 0 0 41 41;" xml:space="preserve">
<style type="text/css">
	.st0{fill:#F5F7FA;}
	.st1{fill:#C4C4C4;}
</style>
<circle class="st0" cx="20.5" cy="20.5" r="20.1"/>
<path class="st1" d="M30.4,28.3H10.6c-1.2,0-2.1,0.9-2.1,2.1v1.4c0,0.4,0.3,0.7,0.7,0.7h22.6c0.4,0,0.7-0.3,0.7-0.7v-1.4
	C32.5,29.2,31.6,28.3,30.4,28.3z"/>
<path class="st1" d="M24.5,21.2h-2.3c-0.3,1.9-0.3,3.8,0,5.7h2.3C24.7,25,24.7,23.1,24.5,21.2z"/>
<path class="st1" d="M30.1,21.2h-2.3c-0.3,1.9-0.3,3.8,0,5.7h2.3C30.4,25,30.4,23.1,30.1,21.2z"/>
<path class="st1" d="M18.8,21.2h-2.3c-0.3,1.9-0.3,3.8,0,5.7h2.3C19.1,25,19.1,23.1,18.8,21.2z"/>
<path class="st1" d="M13.2,21.2h-2.3c-0.3,1.9-0.3,3.8,0,5.7h2.3C13.4,25,13.4,23.1,13.2,21.2z"/>
<path class="st1" d="M20.9,8.6c-0.2-0.1-0.5-0.1-0.7,0L9,15.6H32L20.9,8.6z M20.5,14.2c-0.4,0-0.7-0.3-0.7-0.7
	c0-0.4,0.3-0.7,0.7-0.7s0.7,0.3,0.7,0.7C21.2,13.9,20.9,14.2,20.5,14.2z"/>
<path class="st1" d="M8.5,17v0.7c0,1.2,0.9,2.1,2.1,2.1h19.8c1.2,0,2.1-0.9,2.1-2.1V17H8.5z"/>
</svg>
