<?xml version="1.0" encoding="utf-8"?>
<!-- Generator: Adobe Illustrator 23.1.1, SVG Export Plug-In . SVG Version: 6.00 Build 0)  -->
<svg version="1.1" id="Layer_1" xmlns="http://www.w3.org/2000/svg" xmlns:xlink="http://www.w3.org/1999/xlink" x="0px" y="0px"
	 viewBox="0 0 41 41" style="enable-background:new 0 0 41 41;" xml:space="preserve">
<style type="text/css">
	.st0{fill:#F5F7FA;}
	.st1{display:none;fill:#FF5364;}
	.st2{fill:#5766CB;}
</style>
<circle class="st0" cx="20.5" cy="20.5" r="20.1"/>
<path class="st1" d="M21.1,28.5h-4.3c-0.3,0-0.5-0.2-0.5-0.5v-4.3c0-0.2,0.1-0.4,0.3-0.5c0.2-0.1,0.4,0,0.5,0.1l1.1,1.1l4.2-4.2
	c0.3-0.3,0.9-0.3,1.2,0l0.9,0.9c0.3,0.3,0.3,0.9,0,1.2l-4.2,4.2l1.1,1.1c0.1,0.1,0.2,0.4,0.1,0.5S21.3,28.5,21.1,28.5z"/>
<path class="st1" d="M18.6,20.7l-0.9-0.9c-0.3-0.3-0.3-0.9,0-1.2l4.2-4.2l-1.1-1.1c-0.1-0.1-0.2-0.4-0.1-0.5
	c0.1-0.2,0.3-0.3,0.5-0.3h4.3c0.3,0,0.5,0.2,0.5,0.5v4.3c0,0.2-0.1,0.4-0.3,0.5c-0.2,0.1-0.4,0-0.5-0.1L24,16.5l-4.2,4.2
	C19.4,21,18.9,21,18.6,20.7z"/>
<path class="st1" d="M19.1,33.1l9.3-15.9c0.2-0.4-0.1-0.8-0.5-0.7l-6.2,0.8l1.5-7.7c0-0.3-0.3-0.4-0.4-0.2l-9.1,12
	c-0.3,0.3,0,0.8,0.5,0.8l6.8-0.7L18.8,33C18.6,33.2,19,33.4,19.1,33.1z"/>
<path class="st2" d="M27.4,15.6H12.6c-0.4,0-0.8,0.4-0.8,0.8V29c0,2.1,1.7,3.9,3.9,3.9h8.6c2.1,0,3.9-1.7,3.9-3.9V16.4
	C28.2,15.9,27.8,15.6,27.4,15.6z M18.1,28c0,0.5-0.4,1-1,1c-0.5,0-1-0.4-1-1v-7.6c0-0.5,0.4-1,1-1c0.5,0,1,0.4,1,1V28z M23.9,28
	c0,0.5-0.4,1-1,1c-0.5,0-1-0.4-1-1v-7.6c0-0.5,0.4-1,1-1c0.5,0,1,0.4,1,1V28z"/>
<path class="st2" d="M26.6,10.1H23V9.8c0-0.5-0.4-1-1-1h-4.2c-0.5,0-1,0.4-1,1v0.3h-3.5c-1.3,0-2.4,1.1-2.4,2.4v1.6
	c0,0.3,0.2,0.5,0.5,0.5h17c0.3,0,0.5-0.2,0.5-0.5v-1.6C29,11.2,27.9,10.1,26.6,10.1z"/>
</svg>
