<?xml version="1.0" encoding="utf-8"?>
<!-- Generator: Adobe Illustrator 23.1.1, SVG Export Plug-In . SVG Version: 6.00 Build 0)  -->
<svg version="1.1" id="Layer_1" xmlns="http://www.w3.org/2000/svg" xmlns:xlink="http://www.w3.org/1999/xlink" x="0px" y="0px"
	 viewBox="0 0 41 41" style="enable-background:new 0 0 41 41;" xml:space="preserve">
<style type="text/css">
	.st0{fill:#F5F7FA;}
	.st1{fill:#C4C4C4;}
</style>
<circle class="st0" cx="20.5" cy="20.5" r="20.1"/>
<path class="st1" d="M31.4,19.7c0,0.4-0.3,0.7-0.7,0.7c-0.4,0-0.7-0.3-0.7-0.7c0-1.1-0.3-2.5-1.5-3.4c-2-1.4-5.4-0.8-7.8-0.1
	c-0.1,0-0.3,0-0.4,0c-2.3-0.7-5.8-1.3-7.8,0.1c-1.2,0.9-1.5,2.4-1.5,3.4c0,0.3-0.2,0.5-0.4,0.6c-0.5,0.2-1-0.2-1-0.7
	c0.1-2.3,1.1-4.3,3.3-5.2c0.8-0.3,1.8-0.5,3.1-0.5c0,0,0,0-1.6-2.1c-1.1-1.4-0.2-3.5,1.6-3.5c0.2,0,0.4,0.1,0.5,0.2
	c0,0,0.8,0.8,2.1,1.2c0.6-1,1.6-1.3,1.7-1.3c0.1,0,0.3,0,0.4,0c0.1,0,1.1,0.4,1.7,1.3c1.3-0.4,2.1-1.2,2.1-1.2
	c0.1-0.1,0.3-0.2,0.5-0.2c1.8,0,2.8,2.1,1.6,3.5c-1,1.3-0.3,0.3-1.6,2.1c0,0,1.4-0.1,2.8,0.4C30.1,15.2,31.3,17.3,31.4,19.7z"/>
<path class="st1" d="M29.3,21.7c0,0,0.1,0.2-3.5-4.8c-1.1-0.1-2.4,0.1-3.5,0.3c0.1,0.2,0.3,0.3,0.5,0.5c0.3,0.2,0.4,0.7,0.1,1
	c-0.2,0.3-0.7,0.4-1,0.1c-0.5-0.3-0.8-0.8-1.1-1.2c-0.3,0.1-0.5,0.1-0.8,0c-0.3,0.4-0.6,0.9-1.1,1.2c-0.3,0.2-0.8,0.2-1-0.1
	c-0.2-0.3-0.2-0.8,0.1-1c0.2-0.1,0.3-0.3,0.5-0.5c-1.1-0.3-2.4-0.4-3.5-0.3c-3.6,5-3.5,4.8-3.5,4.8c-2.2,3.2-1,7.7,2.6,9.3
	c4.1,1.9,8.3,1.9,12.6,0C30.3,29.4,31.6,25,29.3,21.7z M21.2,27.5v0.1c0,0.4-0.3,0.7-0.7,0.7c-0.4,0-0.7-0.3-0.7-0.7v-0.1
	c-0.3-0.1-0.6-0.2-1-0.4c-0.3-0.2-0.4-0.7-0.2-1c0.2-0.3,0.6-0.4,1-0.2c0.3,0.2,0.5,0.2,0.9,0.2c0.5,0,0.6-0.4,0.7-0.6
	c0-0.3-0.1-0.5-0.4-0.6c-0.5-0.2-1.2-0.4-1.6-0.8c-1-0.8-0.7-2.5,0.6-3v-0.1c0-0.4,0.3-0.7,0.7-0.7c0.4,0,0.7,0.3,0.7,0.7v0.1
	c0.4,0.1,0.6,0.3,0.8,0.4c0,0,0,0,0,0c0.3,0.3,0.3,0.7,0,1c-0.3,0.3-0.7,0.3-1,0c-0.2-0.1-0.5-0.2-0.7-0.1c-0.2,0.1-0.3,0.2-0.3,0.4
	c0,0.1,0,0.1,0,0.1c0.3,0.2,0.8,0.4,1.2,0.6C23.1,24.4,22.9,26.9,21.2,27.5z"/>
</svg>
