<?xml version="1.0" encoding="utf-8"?>
<!-- Generator: Adobe Illustrator 23.1.1, SVG Export Plug-In . SVG Version: 6.00 Build 0)  -->
<svg version="1.1" id="Layer_1" xmlns="http://www.w3.org/2000/svg" xmlns:xlink="http://www.w3.org/1999/xlink" x="0px" y="0px"
	 viewBox="0 0 41 41" style="enable-background:new 0 0 41 41;" xml:space="preserve">
<style type="text/css">
	.st0{fill:#FF5364;}
	.st1{display:none;fill:#F5F7FA;}
	.st2{fill:#FFFFFF;}
</style>
<circle class="st0" cx="20.5" cy="20.5" r="20.1"/>
<path class="st1" d="M21.1,28.5h-4.3c-0.3,0-0.5-0.2-0.5-0.5v-4.3c0-0.2,0.1-0.4,0.3-0.5c0.2-0.1,0.4,0,0.5,0.1l1.1,1.1l4.2-4.2
	c0.3-0.3,0.9-0.3,1.2,0l0.9,0.9c0.3,0.3,0.3,0.9,0,1.2l-4.2,4.2l1.1,1.1c0.1,0.1,0.2,0.4,0.1,0.5C21.4,28.2,21.3,28.5,21.1,28.5z"/>
<path class="st1" d="M18.6,20.7l-0.9-0.9c-0.3-0.3-0.3-0.9,0-1.2l4.2-4.2l-1.1-1.1c-0.1-0.1-0.2-0.4-0.1-0.5
	c0.1-0.2,0.3-0.3,0.5-0.3h4.3c0.3,0,0.5,0.2,0.5,0.5v4.3c0,0.2-0.1,0.4-0.3,0.5c-0.2,0.1-0.4,0-0.5-0.1L24,16.5l-4.2,4.2
	C19.4,21,18.9,21,18.6,20.7z"/>
<path class="st2" d="M20.5,12.5c2.2,0,4,1.8,4,4s-1.8,4-4,4s-4-1.8-4-4S18.3,12.5,20.5,12.5z M20.5,28.5c0,0,8,0,8-2
	c0-2.4-3.9-5-8-5s-8,2.6-8,5C12.5,28.5,20.5,28.5,20.5,28.5z"/>
</svg>
