<?xml version="1.0" encoding="utf-8"?>
<!-- Generator: Adobe Illustrator 23.1.1, SVG Export Plug-In . SVG Version: 6.00 Build 0)  -->
<svg version="1.1" id="Layer_1" xmlns="http://www.w3.org/2000/svg" xmlns:xlink="http://www.w3.org/1999/xlink" x="0px" y="0px"
	 viewBox="0 0 41 41" style="enable-background:new 0 0 41 41;" xml:space="preserve">
<style type="text/css">
	.st0{fill:#F5F7FA;}
	.st1{clip-path:url(#SVGID_2_);}
	.st2{fill:#009688;}
	.st3{fill:#455A64;}
</style>
<circle class="st0" cx="20.5" cy="20.5" r="20.1"/>
<g>
	<defs>
		<rect id="SVGID_1_" x="12.5" y="12.5" width="16" height="16"/>
	</defs>
	<clipPath id="SVGID_2_">
		<use xlink:href="#SVGID_1_"  style="overflow:visible;"/>
	</clipPath>
	<g class="st1">
		<path class="st2" d="M27.2,23c-1,0-1.9-0.2-2.9-0.5c-0.4-0.2-0.9,0-1.2,0.3l-1.8,1.4c-2-1-3.5-2.6-4.5-4.5l1.3-1.8
			c0.3-0.3,0.5-0.8,0.3-1.3c-0.3-0.9-0.5-1.9-0.5-2.9c0-0.7-0.6-1.3-1.3-1.3h-2.9c-0.7,0-1.3,0.6-1.3,1.3c0,8.1,6.6,14.7,14.7,14.7
			c0.7,0,1.3-0.6,1.3-1.3v-2.9C28.5,23.6,27.9,23,27.2,23z"/>
		<path class="st3" d="M28.1,19.2c-0.2,0-0.4-0.2-0.4-0.4c0-3-2.5-5.5-5.5-5.5c-0.2,0-0.4-0.2-0.4-0.4c0-0.2,0.2-0.4,0.4-0.4
			c3.5,0,6.3,2.8,6.3,6.3C28.5,19,28.3,19.2,28.1,19.2z"/>
		<path class="st3" d="M24.7,19.2c-0.2,0-0.4-0.2-0.4-0.4c0-1.2-0.9-2.1-2.1-2.1c-0.2,0-0.4-0.2-0.4-0.4s0.2-0.4,0.4-0.4
			c1.6,0,2.9,1.3,2.9,2.9C25.1,19,24.9,19.2,24.7,19.2z"/>
	</g>
</g>
</svg>
