<?xml version="1.0" encoding="utf-8"?>
<!-- Generator: Adobe Illustrator 23.1.1, SVG Export Plug-In . SVG Version: 6.00 Build 0)  -->
<svg version="1.1" id="Layer_1" xmlns="http://www.w3.org/2000/svg" xmlns:xlink="http://www.w3.org/1999/xlink" x="0px" y="0px"
	 viewBox="0 0 41 41" style="enable-background:new 0 0 41 41;" xml:space="preserve">
<style type="text/css">
	.st0{fill:#F5F7FA;}
	.st1{fill:#2B3890;}
	.st2{fill:#3342AA;}
	.st3{fill:#5766CB;}
	.st4{fill:#BED8FB;}
	.st5{fill:#9DC6FB;}
</style>
<circle class="st0" cx="20.5" cy="20.5" r="20.1"/>
<path class="st1" d="M15.4,28.2c-0.1,0-0.2-0.1-0.2-0.2L15,27.3c0-0.1,0.1-0.3,0.2-0.3c0.1,0,0.3,0.1,0.3,0.2l0.2,0.7
	C15.6,28,15.6,28.1,15.4,28.2C15.4,28.2,15.4,28.2,15.4,28.2z"/>
<path class="st1" d="M25.6,28.2C25.6,28.2,25.6,28.2,25.6,28.2c-0.2,0-0.3-0.2-0.2-0.3l0.2-0.7c0-0.1,0.2-0.2,0.3-0.2
	c0.1,0,0.2,0.2,0.2,0.3L25.9,28C25.8,28.1,25.7,28.2,25.6,28.2z"/>
<path class="st2" d="M20.5,16.7c-0.1,0-0.1,0-0.2-0.1l-2.9-3.4c-0.1-0.1-0.1-0.3,0-0.3c0.1-0.1,0.3-0.1,0.3,0l2.7,3.2l2.7-3.2
	c0.1-0.1,0.2-0.1,0.3,0c0.1,0.1,0.1,0.2,0,0.3l-2.9,3.4C20.7,16.7,20.6,16.7,20.5,16.7z"/>
<path class="st3" d="M26.9,15.8c-4.3-0.3-8.5-0.3-12.8,0c-0.7,0-1.3,0.6-1.3,1.3c-0.3,2.9-0.3,5.9,0,8.8c0.1,0.7,0.6,1.2,1.3,1.3
	c4.3,0.3,8.5,0.3,12.8,0c0.7,0,1.3-0.6,1.3-1.3c0.3-2.9,0.3-5.9,0-8.8C28.2,16.4,27.6,15.8,26.9,15.8z"/>
<path class="st2" d="M14.4,27.2c-0.1,0-0.2,0-0.3,0c-0.7,0-1.3-0.6-1.3-1.3c-0.3-2.9-0.3-5.9,0-8.8c0.1-0.7,0.6-1.2,1.3-1.3
	c0.1,0,0.2,0,0.3,0c-0.4,0.2-0.7,0.6-0.8,1.2c-0.4,3-0.4,6.1,0,9.1C13.7,26.5,14,27,14.4,27.2z"/>
<path class="st4" d="M26.2,16.9c-3.8-0.3-7.5-0.3-11.3,0c-0.4,0-0.7,0.3-0.8,0.7c-0.3,2.5-0.3,5,0,7.6c0.1,0.4,0.4,0.7,0.8,0.7
	c3.8,0.3,7.5,0.3,11.3,0c0.4,0,0.7-0.3,0.8-0.7c0.3-2.5,0.3-5,0-7.6C26.9,17.3,26.6,17,26.2,16.9z"/>
<path class="st5" d="M15.7,26.1c-0.3,0-0.6,0-0.9-0.1c-0.4,0-0.7-0.3-0.8-0.7c-0.3-2.5-0.3-5,0-7.6c0.1-0.4,0.4-0.7,0.8-0.7
	c0.3,0,0.6,0,0.9-0.1c-0.2,0.1-0.4,0.4-0.5,0.7c-0.3,2.6-0.3,5.2,0,7.8C15.3,25.7,15.5,25.9,15.7,26.1z"/>
<path class="st2" d="M20.5,26.4c-1.9,0-3.8-0.1-5.7-0.2c-0.5,0-0.9-0.4-1-1c-0.3-2.5-0.3-5.1,0-7.6c0.1-0.5,0.5-0.9,1-1
	c3.8-0.3,7.6-0.3,11.4,0c0.5,0,0.9,0.4,1,1c0.3,2.5,0.3,5.1,0,7.6c-0.1,0.5-0.5,0.9-1,1C24.3,26.4,22.4,26.4,20.5,26.4z M20.5,17
	c-1.9,0-3.8,0.1-5.6,0.2c-0.3,0-0.5,0.2-0.6,0.5c-0.3,2.5-0.3,5,0,7.5c0,0.3,0.3,0.5,0.6,0.5c3.7,0.3,7.5,0.3,11.3,0
	c0.3,0,0.5-0.2,0.6-0.5c0.3-2.5,0.3-5,0-7.5c0-0.3-0.3-0.5-0.6-0.5C24.3,17.1,22.4,17,20.5,17z"/>
</svg>
