<?xml version="1.0" encoding="utf-8"?>
<!-- Generator: Adobe Illustrator 23.1.1, SVG Export Plug-In . SVG Version: 6.00 Build 0)  -->
<svg version="1.1" xmlns="http://www.w3.org/2000/svg" xmlns:xlink="http://www.w3.org/1999/xlink" x="0px" y="0px"
	 viewBox="0 0 41 41" style="enable-background:new 0 0 41 41;" xml:space="preserve">
<style type="text/css">
	.st0{fill:#FF5364;}
	.st1{clip-path:url(#SVGID_2_);}
	.st2{fill:#FFFFFF;}
</style>
<g id="Layer_3">
	<circle class="st0" cx="20.5" cy="20.5" r="19.5"/>
</g>
<g id="Layer_2">
	<g>
		<defs>
			<rect id="SVGID_1_" x="12" y="12.5" width="16" height="16"/>
		</defs>
		<clipPath id="SVGID_2_">
			<use xlink:href="#SVGID_1_"  style="overflow:visible;"/>
		</clipPath>
		<g class="st1">
			<path class="st2" d="M26.7,23c-1,0-1.9-0.2-2.9-0.5c-0.4-0.2-0.9,0-1.2,0.3l-1.8,1.4c-2-1-3.5-2.6-4.5-4.5l1.3-1.8
				c0.3-0.3,0.5-0.8,0.3-1.3c-0.3-0.9-0.5-1.9-0.5-2.9c0-0.7-0.6-1.3-1.3-1.3h-2.9c-0.7,0-1.3,0.6-1.3,1.3c0,8.1,6.6,14.7,14.7,14.7
				c0.7,0,1.3-0.6,1.3-1.3v-2.9C28,23.6,27.4,23,26.7,23z"/>
			<path class="st2" d="M27.6,19.2c-0.2,0-0.4-0.2-0.4-0.4c0-3-2.5-5.5-5.5-5.5c-0.2,0-0.4-0.2-0.4-0.4c0-0.2,0.2-0.4,0.4-0.4
				c3.5,0,6.3,2.8,6.3,6.3C28,19,27.8,19.2,27.6,19.2z"/>
			<path class="st2" d="M24.2,19.2c-0.2,0-0.4-0.2-0.4-0.4c0-1.2-0.9-2.1-2.1-2.1c-0.2,0-0.4-0.2-0.4-0.4s0.2-0.4,0.4-0.4
				c1.6,0,2.9,1.3,2.9,2.9C24.6,19,24.4,19.2,24.2,19.2z"/>
		</g>
	</g>
</g>
</svg>
