<?xml version="1.0" encoding="utf-8"?>
<!-- Generator: Adobe Illustrator 23.1.1, SVG Export Plug-In . SVG Version: 6.00 Build 0)  -->
<svg version="1.1" id="Layer_1" xmlns="http://www.w3.org/2000/svg" xmlns:xlink="http://www.w3.org/1999/xlink" x="0px" y="0px"
	 viewBox="0 0 41 41" style="enable-background:new 0 0 41 41;" xml:space="preserve">
<style type="text/css">
	.st0{fill:#FF5364;}
	.st1{clip-path:url(#SVGID_2_);}
	.st2{fill:#F5F7FA;}
</style>
<circle class="st0" cx="20.5" cy="20.5" r="20.1"/>
<g>
	<g>
		<defs>
			<rect id="SVGID_1_" x="12.5" y="12.5" width="16" height="16"/>
		</defs>
		<clipPath id="SVGID_2_">
			<use xlink:href="#SVGID_1_"  style="overflow:visible;"/>
		</clipPath>
		<g class="st1">
			<path class="st2" d="M26.2,12.9c-0.2-0.1-0.5-0.1-0.7,0.1l-1,0.9h-0.1L23,12.6c-0.3-0.2-0.6-0.2-0.9,0l-1.4,1.3h-0.1L19,12.7
				c-0.3-0.2-0.6-0.2-0.9,0L16.7,14h-0.1l-1.1-1c-0.3-0.2-0.7-0.2-1,0.1c-0.1,0.1-0.2,0.3-0.2,0.5v13.9c0,0.4,0.3,0.7,0.7,0.7
				c0.2,0,0.3-0.1,0.5-0.2l1-0.9h0.1l1.4,1.3c0.3,0.2,0.6,0.2,0.9,0l1.4-1.3h0.1l1.4,1.3c0.3,0.2,0.6,0.2,0.9,0l1.4-1.3h0.1l1.1,0.9
				c0.3,0.2,0.7,0.2,1-0.1c0.1-0.1,0.2-0.3,0.2-0.5V13.5C26.6,13.3,26.4,13,26.2,12.9z M16.9,17.9h3.8c0.2,0,0.3,0.1,0.3,0.3
				s-0.1,0.3-0.3,0.3h-3.8c-0.2,0-0.3-0.1-0.3-0.3S16.7,17.9,16.9,17.9z M24.1,23.1h-7.2c-0.2,0-0.3-0.1-0.3-0.3
				c0-0.2,0.1-0.3,0.3-0.3h7.2c0.2,0,0.3,0.1,0.3,0.3C24.4,22.9,24.3,23.1,24.1,23.1z M24.1,20.8h-7.2c-0.2,0-0.3-0.1-0.3-0.3
				c0-0.2,0.1-0.3,0.3-0.3h7.2c0.2,0,0.3,0.1,0.3,0.3C24.4,20.7,24.3,20.8,24.1,20.8z"/>
		</g>
	</g>
</g>
</svg>
