<svg width="482" height="398" viewBox="0 0 482 398" fill="none" xmlns="http://www.w3.org/2000/svg">
<path fill-rule="evenodd" clip-rule="evenodd" d="M120.036 112.382C125.291 115.551 130.453 117.082 132.877 116.457C138.953 114.89 139.512 92.6432 134.81 83.8729C130.108 75.1026 105.936 71.2799 104.718 88.6567C104.295 94.6876 106.826 100.07 110.564 104.462L103.86 135.731H123.334L120.036 112.382Z" fill="#B28B67"/>
<path fill-rule="evenodd" clip-rule="evenodd" d="M136.649 87.8107C136.456 86.6739 135.984 85.4115 135.604 84.3359C135.114 82.9494 134.371 81.6993 133.555 80.5212C132.017 78.303 130.172 76.3 128.136 74.6375C124.416 71.6008 119.68 69.8493 115.023 70.4181C112.672 70.7053 110.39 71.6028 108.447 73.0966C106.692 74.4463 105.003 76.4332 102.731 76.5759C100.258 76.7312 97.9909 74.5469 96.0076 73.1979C93.7714 71.6771 91.3925 70.5689 88.7789 70.1381C84.4006 69.4167 80.2875 70.897 77.2701 74.4917C74.0591 78.317 71.725 83.9268 73.8336 88.9952C74.2256 89.9374 74.7298 90.7317 75.4535 91.39C76.1172 91.9937 77.1309 92.636 77.4 93.6006C77.6858 94.6259 76.832 95.9486 76.5009 96.8738C76.0265 98.1993 75.6371 99.5906 75.7756 101.031C76.003 103.397 77.4889 105.656 79.0578 107.211C80.6545 108.794 82.6195 109.701 84.7184 110.119C86.1199 110.399 87.5521 110.553 88.9765 110.448C89.6836 110.396 90.3075 110.199 90.9926 110.043C91.6588 109.891 92.0312 110.068 92.5964 110.434C95.2221 112.132 98.0454 112.79 101.077 112.537C103.636 112.324 106.585 111.703 108.673 109.949C110.991 108 110.945 105.313 110.399 102.442C110.977 102.729 112.576 102.907 111.621 101.764C111.242 101.312 110.527 101.128 110.042 100.861C109.476 100.551 108.902 100.151 108.463 99.6456C106.69 97.6046 108.481 93.4511 110.709 92.7666C114.02 91.7497 114.761 96.4354 117.125 97.6475C118.484 98.3444 119.905 97.3919 120.924 96.4192C122.287 95.1163 123.217 93.3902 124.019 91.6336C124.681 90.1871 125.296 88.7202 125.969 87.2809C126.284 86.6087 127.373 84.7086 126.826 83.9486C129.198 83.4754 131.839 84.4616 133.882 85.7548C134.726 86.2895 135.369 86.8789 135.82 87.8227C135.916 88.025 136.126 88.6262 136.39 88.6508C136.881 88.6967 136.697 88.0964 136.649 87.8107Z" fill="#191847"/>
<path fill-rule="evenodd" clip-rule="evenodd" d="M59.0046 238.04C50.1681 238.04 43.0046 245.204 43.0046 254.04V322.726C43.0046 331.562 50.1681 338.726 59.0046 338.726H146.282C155.118 338.726 162.282 331.562 162.282 322.726V254.04C162.282 245.204 155.118 238.04 146.282 238.04H59.0046ZM69.7241 260.776C67.515 260.776 65.7241 262.567 65.7241 264.776V311.99C65.7241 314.199 67.515 315.99 69.7241 315.99H135.562C137.772 315.99 139.562 314.199 139.562 311.99V264.776C139.562 262.567 137.772 260.776 135.562 260.776H69.7241Z" fill="#C5CFD6"/>
<path d="M89.0536 370.513V346.946L88.1545 347.022C84.5482 347.32 81.0111 348.182 77.6722 349.577L76.0894 350.234V373.707L77.242 373.228C80.6972 371.79 84.3555 370.901 88.0848 370.591L89.0536 370.513Z" fill="#DB353A"/>
<path d="M91.9998 350.43H90.2319V371.055C90.2331 371.363 89.9974 371.619 89.691 371.645L88.1818 371.768C87.7462 371.804 87.3117 371.849 86.8789 371.902C86.7385 371.919 86.599 371.942 86.4594 371.961C86.1676 372 85.8765 372.039 85.5861 372.085C85.4169 372.112 85.2489 372.144 85.0803 372.174C84.8205 372.219 84.5601 372.264 84.3008 372.316C84.1238 372.351 83.9472 372.391 83.7668 372.429C83.5199 372.481 83.273 372.535 83.0279 372.593C82.844 372.637 82.6607 372.683 82.478 372.73C82.2395 372.789 82.0021 372.853 81.765 372.919C81.5805 372.969 81.3961 373.023 81.2122 373.077C80.9766 373.147 80.7444 373.217 80.5116 373.292C80.3295 373.351 80.147 373.41 79.9655 373.468C79.7324 373.547 79.5005 373.628 79.2694 373.712C79.0928 373.776 78.9158 373.84 78.7351 373.908C78.6543 373.939 78.574 373.972 78.4934 374.003H91.9998V350.43Z" fill="#DB353A"/>
<path d="M62.8457 347.022L61.9465 346.946V370.514L62.9925 370.603C66.7195 370.915 70.3746 371.81 73.824 373.255L74.9108 373.707V350.234L73.3297 349.577C69.9905 348.182 66.4528 347.32 62.8457 347.022Z" fill="#DB353A"/>
<path d="M59 350.43V374.002H72.5159C72.4434 373.973 72.3709 373.943 72.2978 373.916C72.1292 373.852 71.9591 373.79 71.7893 373.728C71.5499 373.641 71.3108 373.557 71.0697 373.476C70.8953 373.417 70.7204 373.36 70.5452 373.304C70.3061 373.225 70.0661 373.151 69.8258 373.082C69.6489 373.031 69.4722 372.979 69.2955 372.929C69.0533 372.862 68.8104 372.798 68.567 372.736C68.3903 372.691 68.2133 372.645 68.0326 372.603C67.7858 372.544 67.5374 372.49 67.2894 372.436C67.1128 372.398 66.9358 372.359 66.7591 372.324C66.5022 372.273 66.2441 372.228 65.986 372.183C65.8168 372.153 65.6476 372.124 65.4781 372.093C65.1933 372.048 64.9075 372.01 64.6218 371.971C64.4774 371.952 64.3341 371.929 64.1899 371.913C63.7577 371.86 63.3256 371.816 62.8934 371.779L61.3071 371.645C61.0012 371.618 60.7667 371.362 60.7679 371.055V350.43H59Z" fill="#DB353A"/>
<path fill-rule="evenodd" clip-rule="evenodd" d="M242.74 334.666C226.743 315.117 215.918 300.624 210.267 291.187C200.591 275.03 192.672 260.652 190.172 255.16C184.213 242.064 203.892 235.931 208.346 242.04C215.088 251.286 229.484 280.379 251.537 329.321L242.74 334.666Z" fill="#B28B67"/>
<path fill-rule="evenodd" clip-rule="evenodd" d="M209.958 328.982L180.186 253.985C173.818 240.313 204.569 231.327 209.249 237.689C219.874 252.134 245.126 309.116 248.291 313.42L209.958 328.982Z" fill="#2F3676"/>
<path fill-rule="evenodd" clip-rule="evenodd" d="M130.664 313.942C136.463 305.476 157.558 276.994 169.048 265.21C172.35 261.824 175.572 258.573 178.619 255.544C187.676 246.542 205.712 261.673 196.671 269.874C174.157 290.295 141.308 317.863 138.563 320.322C134.717 323.767 127.019 319.262 130.664 313.942Z" fill="#B28B67"/>
<path fill-rule="evenodd" clip-rule="evenodd" d="M134.666 310.787C133.963 309.85 132.621 309.624 131.732 310.385C130.434 311.495 128.757 313.048 128.121 314.15C127.024 316.052 125.552 320.067 125.552 320.067C127.757 321.341 165.185 342.966 165.185 342.966C165.185 342.966 169.679 338.747 166.586 336.417C163.492 334.086 161.48 332.486 161.48 332.486L147.914 313.782C147.583 313.326 146.941 313.233 146.495 313.577L143.806 315.649C143.806 315.649 139.895 315.307 137.968 314.194C136.893 313.573 135.6 312.03 134.666 310.787Z" fill="#E4E4E4"/>
<path fill-rule="evenodd" clip-rule="evenodd" d="M238.486 331C237.409 330.541 236.133 331.016 235.743 332.121C235.174 333.731 234.498 335.915 234.498 337.188C234.498 339.384 235.229 343.598 235.229 343.598C237.775 343.598 280.994 343.598 280.994 343.598C280.994 343.598 282.778 337.696 278.934 337.225C275.091 336.755 272.549 336.376 272.549 336.376L251.455 326.965C250.94 326.736 250.338 326.977 250.123 327.498L248.83 330.637C248.83 330.637 245.272 332.299 243.047 332.299C241.806 332.299 239.915 331.61 238.486 331Z" fill="#E4E4E4"/>
<path fill-rule="evenodd" clip-rule="evenodd" d="M169.473 257.731C169.473 257.731 132.354 251.68 119.748 249.455C95.7928 245.228 88.8073 232.328 92.9375 204.182L137.075 204.182C145.836 206.714 210.291 235.5 210.291 235.5C218.022 239.341 216.582 250.664 215.169 254.395C215.083 254.623 176.07 321.441 176.07 321.441L139.963 298.423L169.54 260.443C169.54 260.443 170.712 258.082 169.473 257.731Z" fill="#5C63AB"/>
<path fill-rule="evenodd" clip-rule="evenodd" d="M51.4419 239.59C53.8197 234.762 65.6998 172.635 65.6998 172.635L83.4676 172.702C83.4676 172.702 63.1689 238.513 61.9171 241.617C60.2911 245.65 63.0531 251.509 64.926 255.481C65.2157 256.096 65.4842 256.665 65.7118 257.176C63.1131 258.34 61.8648 256.933 60.5488 255.45C59.0623 253.775 57.4894 252.003 53.7868 253.727C52.3563 254.393 51.0027 255.18 49.6802 255.95C45.1119 258.607 40.9153 261.048 35.2064 257.523C34.3014 256.964 33.3096 254.86 35.7059 253.216C41.6761 249.119 50.2794 241.949 51.4419 239.59ZM201.085 215.382L178.099 192.943L170.465 206.162L194.367 220.264C200.36 229.711 203.88 233.793 204.926 232.51C205.809 231.428 205.404 230.242 205.032 229.15C204.742 228.299 204.471 227.504 204.843 226.86C205.692 225.389 210.491 226.232 215.011 227.226C219.53 228.22 218.485 225.998 217.524 224.839C213.252 221.389 207.772 218.237 201.085 215.382Z" fill="#B28B67"/>
<path fill-rule="evenodd" clip-rule="evenodd" d="M119.841 122.197L126.858 120.992C137.91 160.091 194.7 186.742 198.186 201.358C199.465 206.718 195.61 209.427 197.601 211.06L188.481 217.741C186.937 215.938 183.641 219.236 176.759 216.929C169.876 214.622 119.841 168.492 119.841 122.197Z" fill="#DB2721"/>
<path fill-rule="evenodd" clip-rule="evenodd" d="M108.115 114.086C105.911 113.932 104 115.594 103.846 117.798L103.566 121.804C90.3613 131.972 57.6342 162.358 49.106 218.924C48.2101 224.865 49.8302 228.048 51.1247 230.591C52.0102 232.331 52.7433 233.771 52.4145 235.59L64.35 238.887C64.35 237.544 65.8543 236.522 67.795 235.203C70.6169 233.286 74.3615 230.742 75.7461 225.672C77.0586 220.865 78.9804 214.861 81.2765 208.183C81.4933 217.028 83.1695 225.162 86.821 231.9C95.9309 248.708 148.576 230.275 154.076 213.127C157.011 203.977 152.847 196.295 147.339 186.135C140.347 173.238 131.191 156.348 131.644 127.395L132.176 119.78C132.33 117.576 130.668 115.665 128.465 115.51L108.115 114.086Z" fill="#FF4133"/>
<path fill-rule="evenodd" clip-rule="evenodd" d="M348.754 61.1446C343.492 64.3163 338.322 65.8488 335.895 65.2232C329.809 63.6545 329.249 41.3905 333.958 32.6134C338.667 23.8363 362.875 20.0106 364.095 37.4009C364.519 43.4366 361.984 48.823 358.24 53.2182L364.954 84.5118H345.451L348.754 61.1446Z" fill="#B28B67"/>
<path fill-rule="evenodd" clip-rule="evenodd" d="M335.232 29.2099C335.402 28.1493 335.064 27.6288 339.328 24.641C343.593 21.6532 350.477 18.1293 357.411 19.6629C366.41 21.6532 369.985 27.5891 373.455 30.475C376.583 33.0766 379.722 33.38 381.582 36.6081C383.442 39.8362 384.432 49.1234 382.814 52.8157C380.583 57.9091 376.183 59.2808 372.971 60.7482C367.463 63.2648 359.676 60.6069 359.488 60.1666C358.029 56.7608 350.175 47.1533 345.451 43.1169C341.977 40.1487 334.43 34.1875 335.232 29.2099Z" fill="#5C63AB"/>
<mask id="mask0" mask-type="alpha" maskUnits="userSpaceOnUse" x="335" y="19" width="49" height="43">
<path fill-rule="evenodd" clip-rule="evenodd" d="M335.232 29.2099C335.402 28.1493 335.064 27.6288 339.328 24.641C343.593 21.6532 350.477 18.1293 357.411 19.6629C366.41 21.6532 369.985 27.5891 373.455 30.475C376.583 33.0766 379.722 33.38 381.582 36.6081C383.442 39.8362 384.432 49.1234 382.814 52.8157C380.583 57.9091 376.183 59.2808 372.971 60.7482C367.463 63.2648 359.676 60.6069 359.488 60.1666C358.029 56.7608 350.175 47.1533 345.451 43.1169C341.977 40.1487 334.43 34.1875 335.232 29.2099Z" fill="white"/>
</mask>
<g mask="url(#mask0)">
<path fill-rule="evenodd" clip-rule="evenodd" d="M362.001 53.8137C371.327 42.3123 373.521 28.4414 373.521 28.4414L376.33 30.2182C376.33 30.2182 372.876 45.3762 362.001 53.8137ZM358.453 60.1333C373.545 46.8723 377.144 31.9699 377.144 31.9699L380.394 32.9279C380.394 32.9279 375.916 49.5924 358.453 60.1333Z" fill="black" fill-opacity="0.2"/>
</g>
<path fill-rule="evenodd" clip-rule="evenodd" d="M377.929 153.133L347.395 253.15L332.604 338.209H321.006L336.636 153.133H377.929Z" fill="#997659"/>
<path fill-rule="evenodd" clip-rule="evenodd" d="M388.853 153.133C386.779 208.048 389.219 236.374 389.684 241.363C390.148 246.352 396.504 278.703 411.551 339.884L399.193 335.631C375.412 279.519 367.309 250.357 364.581 242.989C361.854 235.621 354.61 205.669 342.849 153.133H388.853Z" fill="#B28B67"/>
<path fill-rule="evenodd" clip-rule="evenodd" d="M408.83 334.825C409.908 334.365 411.184 334.841 411.574 335.946C412.143 337.559 412.82 339.745 412.82 341.02C412.82 343.219 412.088 347.438 412.088 347.438C409.542 347.438 366.323 347.438 366.323 347.438C366.323 347.438 364.539 341.529 368.383 341.057C372.226 340.586 374.769 340.207 374.769 340.207L395.861 330.785C396.376 330.555 396.979 330.796 397.194 331.317L398.487 334.461C398.487 334.461 402.046 336.124 404.27 336.124C405.511 336.124 407.401 335.435 408.83 334.825Z" fill="#E4E4E4"/>
<path fill-rule="evenodd" clip-rule="evenodd" d="M332.557 334.825C333.635 334.365 334.912 334.841 335.301 335.946C335.87 337.559 336.547 339.745 336.547 341.02C336.547 343.219 335.816 347.438 335.816 347.438C333.27 347.438 290.051 347.438 290.051 347.438C290.051 347.438 288.267 341.529 292.11 341.057C295.954 340.586 298.496 340.207 298.496 340.207L319.589 330.785C320.104 330.555 320.707 330.796 320.922 331.317L322.215 334.461C322.215 334.461 325.773 336.124 327.998 336.124C329.238 336.124 331.128 335.435 332.557 334.825Z" fill="#E4E4E4"/>
<path fill-rule="evenodd" clip-rule="evenodd" d="M381.986 153.133L369.004 204.091H329.35L335.262 153.133H381.986Z" fill="#69A1AC"/>
<path fill-rule="evenodd" clip-rule="evenodd" d="M389.289 153.133C395.696 172.377 391.723 204.091 391.723 204.091H351.258L340.131 153.133H389.289Z" fill="#89C5CC"/>
<path d="M281 245.966C281 246.518 280.552 246.966 280 246.966H276.09C276.626 250.025 279.407 252.17 282.502 251.91C285.597 251.65 287.982 249.071 288 245.966V237.966C287.982 234.86 285.597 232.281 282.502 232.021C279.407 231.761 276.626 233.906 276.09 236.966H280C280.552 236.966 281 237.413 281 237.966C281 238.518 280.552 238.966 280 238.966H276V240.966H280C280.552 240.966 281 241.413 281 241.966C281 242.518 280.552 242.966 280 242.966H276V244.966H280C280.552 244.966 281 245.413 281 245.966Z" fill="#DB353A"/>
<path d="M281 253.896V255.966H283V253.896C282.337 253.989 281.663 253.989 281 253.896Z" fill="#DB353A"/>
<path d="M288 258.965C288 258.413 287.552 257.965 287 257.965H277C276.448 257.965 276 258.413 276 258.965V259.965H288V258.965Z" fill="#DB353A"/>
<path fill-rule="evenodd" clip-rule="evenodd" d="M265.854 72.1179L297.64 76.9712L291.672 91.0158L265.999 80.4167C254.836 81.3145 249.452 80.9598 249.848 79.3524C250.181 77.9972 251.373 77.6067 252.47 77.2471C253.325 76.967 254.124 76.7055 254.414 76.0212C255.078 74.4585 251.514 71.1343 247.996 68.1243C244.478 65.1142 246.884 64.6128 248.39 64.6823C253.721 66.0175 259.542 68.496 265.854 72.1179ZM284.855 152.696L307.879 130.273L315.522 143.477L291.582 157.571C285.577 167.011 282.051 171.09 281.003 169.808C280.12 168.727 280.525 167.542 280.899 166.451C281.19 165.601 281.461 164.807 281.089 164.164C280.238 162.695 275.432 163.537 270.906 164.532C266.379 165.526 267.427 163.306 268.389 162.147C272.668 158.7 278.157 155.549 284.855 152.696Z" fill="#B28B67"/>
<path fill-rule="evenodd" clip-rule="evenodd" d="M340.628 73.9981C330.306 101.98 312.896 124.765 286.506 149.617L299.357 160.546C330.37 143.81 346.609 134.06 351.634 108.287C352.895 101.818 351.619 81.9424 351.441 71.4153L340.628 73.9981Z" fill="#2026A2"/>
<path fill-rule="evenodd" clip-rule="evenodd" d="M391.888 155.19L329.925 163.898C329.925 163.898 341.971 96.8446 339.07 72.894C338.971 72.0799 340.272 70.4383 340.963 70.5322C348.541 71.5628 356.348 66.8029 356.348 66.8029C374.352 88.3212 383.512 116.642 391.888 155.19Z" fill="#F2F2F2"/>
<path fill-rule="evenodd" clip-rule="evenodd" d="M345.862 104.966C342.008 147.764 347.222 181.623 368.587 178.62L401.625 173.977C401.925 138.038 381.275 91.1696 365.03 68.3486C364.41 67.4771 363.121 65.851 360.673 66.1951L351.073 67.5442C351.071 67.5575 351.068 67.5708 351.066 67.5841C348.18 68.0137 345.014 68.5663 341.584 69.1646C323.93 72.2451 299.315 76.5403 270.234 71.5333L269.253 88.3598C296.636 100.955 323.825 109.872 345.862 104.966Z" fill="#1F28CF"/>
<path d="M428.23 72.4199C428.101 72.2861 427.923 72.2106 427.737 72.2106L422.263 72.2106C422.077 72.2106 421.9 72.2861 421.771 72.4199C420.77 73.4558 412 82.6571 412 86.579C412 92.2388 417.832 96.8422 425 96.8422C432.168 96.8422 438 92.2388 438 86.579C438 82.6571 429.23 73.4558 428.23 72.4199Z" fill="#DB353A"/>
<path d="M433.724 64.9155C432.584 63.6264 429.618 65.3178 427.916 66.4632C427.136 65.3547 425.981 64 425 64C424.019 64 422.864 65.3547 422.084 66.4632C420.386 65.3164 417.415 63.6251 416.276 64.9155C415.961 65.2794 415.812 65.7587 415.866 66.2374C416.086 68.7717 421.245 72.9604 421.832 73.4284C421.954 73.5265 422.106 73.5796 422.263 73.579L427.737 73.579C427.892 73.5791 428.042 73.5265 428.164 73.4299C428.751 72.9605 433.911 68.7772 434.13 66.2388C434.186 65.7602 434.039 65.2801 433.724 64.9155Z" fill="#DB353A"/>
<path d="M430.474 73.579L419.526 73.579C419.148 73.579 418.842 73.2726 418.842 72.8947C418.842 72.5169 419.148 72.2106 419.526 72.2106L430.474 72.2106C430.852 72.2106 431.158 72.5169 431.158 72.8948C431.158 73.2727 430.851 73.579 430.474 73.579Z" fill="#DDE3E9"/>
<path d="M427.739 89.3157L426.179 89.3157L423.141 84.3637L423.141 89.3157L421.581 89.3157L421.581 81.7894L423.141 81.7894L426.184 86.7518L426.184 81.7894L427.739 81.7894L427.739 89.3157Z" fill="white"/>
<path d="M419.527 84.8281C419.527 84.5342 419.765 84.2961 420.059 84.2962L428.573 84.3011C428.867 84.3013 429.105 84.5397 429.105 84.8335C429.105 85.1274 428.866 85.3656 428.572 85.3654L420.058 85.3606C419.765 85.3604 419.526 85.122 419.527 84.8281Z" fill="#FAFAFA"/>
<path d="M419.527 86.9593C419.527 86.6654 419.765 86.4273 420.059 86.4275L428.573 86.4323C428.867 86.4325 429.105 86.6709 429.105 86.9648C429.105 87.2587 428.866 87.4968 428.572 87.4966L420.058 87.4918C419.765 87.4916 419.526 87.2532 419.527 86.9593Z" fill="#FAFAFA"/>
</svg>
