<svg width="627" height="329" viewBox="0 0 627 329" fill="none" xmlns="http://www.w3.org/2000/svg">
<path fill-rule="evenodd" clip-rule="evenodd" d="M112.603 66.6612C118.335 70.1191 123.968 71.7898 126.613 71.1078C133.243 69.3975 133.852 45.1249 128.722 35.5558C123.592 25.9868 97.2185 21.816 95.8892 40.7753C95.4278 47.3555 98.1888 53.2279 102.268 58.0197L94.9536 92.1367H116.201L112.603 66.6612Z" fill="#B28B67"/>
<path fill-rule="evenodd" clip-rule="evenodd" d="M120.33 25.1338C117.426 24.2479 113.212 23.9474 111.439 24.1507C112.447 21.7326 112.848 19.0386 112.521 16.4155C112.204 13.8666 111.066 11.6964 110.013 9.42221C109.528 8.37397 108.978 7.33144 108.159 6.52965C107.324 5.71279 106.266 5.1736 105.158 4.91636C104.024 4.65305 102.837 4.67498 101.701 4.91393C101.199 5.01963 100.748 5.24959 100.255 5.37742C99.7499 5.5084 99.505 5.19224 99.1387 4.87451C98.2557 4.10893 96.9613 3.731 95.8443 3.59574C94.591 3.44405 93.2905 3.63323 92.0953 4.04551C90.9319 4.44687 89.8142 5.09861 88.9731 6.04809C88.5986 6.47073 88.2586 6.95179 88.0377 7.48291C87.9471 7.70087 87.9321 7.82999 87.7148 7.90983C87.5137 7.98375 87.2786 7.98589 87.0712 8.05624C85.0652 8.73612 83.3501 10.2871 82.4163 12.2786C81.8715 13.4404 81.6134 15.4859 81.6841 17.7786C81.7547 20.0712 83.8235 26.0535 85.7583 28.2355C87.4854 30.1832 90.024 31.4685 92.4739 32.0311C90.8478 33.8911 89.7653 36.2154 88.9648 38.5793C88.0954 41.1471 87.5572 43.8151 87.3585 46.5335C87.1698 49.1164 87.1523 51.8478 87.7574 54.3755C88.3234 56.7393 89.5339 58.6784 91.5547 59.9086C92.4804 60.4722 93.4763 60.8955 94.478 61.2825C95.4652 61.6637 96.4554 62.0345 97.4895 62.2484C99.4466 62.6532 101.702 62.5837 103.209 61.0249C103.752 60.4629 104.35 59.7567 104.746 59.0702C104.889 58.8233 104.975 58.6618 104.802 58.4205C104.594 58.1315 104.259 57.91 103.992 57.6839C102.473 56.3948 101.532 54.6738 101.295 52.6286C101.054 50.5535 101.611 47.875 103.627 46.9694C106.116 45.8515 108.857 47.1347 111.069 48.3308C112.009 45.0105 113.939 42.021 116.965 40.498C120.313 38.813 124.155 38.6159 127.596 37.1702C128.493 36.7935 129.406 36.3658 130.066 35.5983C130.342 35.2775 130.665 34.8613 130.775 34.437C130.92 33.8797 130.561 33.4124 130.284 32.9779C128.812 30.6741 123.233 26.0198 120.33 25.1338Z" fill="#191847"/>
<path d="M99.0669 44.7461C98.6234 44.4211 98.1684 44.0205 97.8445 43.5347L97.561 43.1095C97.501 43.0194 97.389 42.9793 97.285 43.0105C97.1812 43.042 97.1103 43.1376 97.1103 43.2459V47.1057C96.965 47.021 96.7984 46.9689 96.6183 46.9689C96.0756 46.9689 95.6343 47.4102 95.6343 47.9529C95.6343 48.4957 96.0756 48.937 96.6183 48.937C97.161 48.937 97.6024 48.4956 97.6024 47.9529V44.0537C97.95 44.4931 98.3848 44.8562 98.776 45.143C98.9682 45.2838 99.0784 45.501 99.0784 45.7388C99.0784 46.1458 98.7474 46.4769 98.3404 46.4769C98.2044 46.4769 98.0944 46.5869 98.0944 46.7229C98.0944 46.8589 98.2044 46.9689 98.3404 46.9689C99.0186 46.9689 99.5705 46.417 99.5705 45.7388C99.5705 45.3484 99.3823 44.9775 99.0669 44.7461Z" fill="white"/>
<path d="M104.067 35.7461C103.623 35.4211 103.168 35.0205 102.845 34.5347L102.561 34.1095C102.501 34.0194 102.389 33.9793 102.285 34.0105C102.181 34.042 102.11 34.1376 102.11 34.2459V38.1057C101.965 38.021 101.798 37.9689 101.618 37.9689C101.076 37.9689 100.634 38.4102 100.634 38.9529C100.634 39.4957 101.076 39.937 101.618 39.937C102.161 39.937 102.602 39.4956 102.602 38.9529V35.0537C102.95 35.4931 103.385 35.8562 103.776 36.143C103.968 36.2838 104.078 36.501 104.078 36.7388C104.078 37.1458 103.747 37.4769 103.34 37.4769C103.204 37.4769 103.094 37.5869 103.094 37.7229C103.094 37.8589 103.204 37.9689 103.34 37.9689C104.019 37.9689 104.57 37.417 104.57 36.7388C104.57 36.3484 104.382 35.9775 104.067 35.7461Z" fill="white"/>
<path d="M97.0669 35.7461C96.6234 35.4211 96.1684 35.0205 95.8445 34.5347L95.561 34.1095C95.501 34.0194 95.389 33.9793 95.285 34.0105C95.1812 34.042 95.1103 34.1376 95.1103 34.2459V38.1057C94.965 38.021 94.7984 37.9689 94.6183 37.9689C94.0756 37.9689 93.6343 38.4102 93.6343 38.9529C93.6343 39.4957 94.0756 39.937 94.6183 39.937C95.161 39.937 95.6024 39.4956 95.6024 38.9529V35.0537C95.95 35.4931 96.3848 35.8562 96.776 36.143C96.9682 36.2838 97.0784 36.501 97.0784 36.7388C97.0784 37.1458 96.7474 37.4769 96.3404 37.4769C96.2044 37.4769 96.0944 37.5869 96.0944 37.7229C96.0944 37.8589 96.2044 37.9689 96.3404 37.9689C97.0186 37.9689 97.5705 37.417 97.5705 36.7388C97.5705 36.3484 97.3823 35.9775 97.0669 35.7461Z" fill="white"/>
<path fill-rule="evenodd" clip-rule="evenodd" d="M102.696 328.466C140.344 328.466 170.865 299.312 170.865 263.35C170.865 227.387 140.344 198.234 102.696 198.234C65.0473 198.234 34.5271 227.387 34.5271 263.35C34.5271 299.312 65.0473 328.466 102.696 328.466Z" fill="#C5CFD6"/>
<path fill-rule="evenodd" clip-rule="evenodd" d="M208.677 259.877C211.97 271.419 220.173 293.296 231.516 318.419L242.295 315.272C232.865 257.461 225.017 219.187 220.522 207.538C217.551 199.841 195.081 200.743 197.666 216.23C198.75 222.724 203.039 240.114 208.677 259.877ZM164.373 218.93C146.795 222.575 110.348 235.458 99.941 239.575C93.4002 242.162 97.6168 250.936 103.197 250.168C104.142 250.038 107.485 249.664 112.473 249.106C128.495 247.312 161.491 243.618 186.515 240.014C199.692 238.116 192.604 213.417 178.923 216.031C174.32 216.91 169.424 217.883 164.373 218.93Z" fill="#B28B67"/>
<path fill-rule="evenodd" clip-rule="evenodd" d="M221.211 201.014C219.414 195.145 137.721 174.314 137.721 174.314H131.026V180.557L187.32 209.234C187.245 210.159 187.291 211.137 187.473 212.169C187.066 233.428 196.159 249.31 205.161 265.035C211.048 275.317 216.896 285.533 220.024 297.14L240.706 294.053C240.104 292.511 239.151 285.558 237.849 276.053C234.564 252.085 229.056 211.885 221.327 201.249C221.3 201.212 221.273 201.175 221.245 201.138C221.235 201.097 221.224 201.055 221.211 201.014Z" fill="#676767"/>
<path fill-rule="evenodd" clip-rule="evenodd" d="M135.703 226.265C130.552 225.233 125.809 224.312 121.75 223.6C95.5332 218.998 87.8881 204.955 92.4083 174.314H140.713C148.603 176.582 189.61 193.791 210.887 202.944C224.968 209.002 220.529 230.84 212.555 236.523C212.511 236.872 212.368 237.109 212.112 237.215C181.878 249.755 156.096 248.819 139.54 248.218C132.606 247.966 127.29 247.774 123.943 248.654L118.7 232.102L135.703 226.265Z" fill="#676767"/>
<path fill-rule="evenodd" clip-rule="evenodd" d="M105.475 238.964C105.422 237.795 104.436 236.858 103.273 236.987C101.404 237.195 98.8065 237.58 97.5141 238.211C95.3617 239.261 91.5822 241.994 91.5822 241.994C92.8 244.493 113.471 286.905 113.471 286.905C113.471 286.905 120.108 285.833 118.731 281.836C117.354 277.84 116.509 275.163 116.509 275.163L115.639 249.868C115.62 249.305 115.139 248.869 114.577 248.904L110.788 249.142C110.788 249.142 107.458 246.445 106.394 244.262C105.777 242.995 105.554 240.682 105.475 238.964Z" fill="#E4E4E4"/>
<path fill-rule="evenodd" clip-rule="evenodd" d="M229.037 312.871C227.962 312.406 226.688 312.882 226.293 313.985C225.66 315.757 224.868 318.261 224.868 319.7C224.868 322.096 225.666 326.694 225.666 326.694C228.444 326.694 275.599 326.694 275.599 326.694C275.599 326.694 277.545 320.255 273.352 319.741C269.158 319.228 266.385 318.814 266.385 318.814L243.284 308.509C242.77 308.279 242.167 308.52 241.952 309.041L240.506 312.553C240.506 312.553 236.623 314.366 234.196 314.366C232.788 314.366 230.615 313.553 229.037 312.871Z" fill="#C5CFD6"/>
<path fill-rule="evenodd" clip-rule="evenodd" d="M205.993 182.85L177.753 162.098L171.511 177.541L199.475 189.145C207.384 198.442 211.807 202.318 212.743 200.772C213.532 199.469 212.915 198.249 212.347 197.125C211.904 196.25 211.491 195.433 211.795 194.68C212.49 192.962 217.803 193.143 222.837 193.53C227.871 193.918 226.404 191.676 225.19 190.569C220.051 187.491 213.652 184.918 205.993 182.85ZM57.8973 219.415C60.4917 214.148 69.3267 162.814 69.3267 162.814L87.8273 162.887C87.8273 162.887 70.6924 218.24 69.3267 221.627C67.5526 226.027 70.5661 232.42 72.6095 236.754C72.9257 237.425 73.2186 238.046 73.467 238.603C70.6316 239.873 69.2696 238.338 67.8337 236.72C66.2118 234.893 64.4957 232.959 60.4559 234.84C58.8951 235.567 57.4181 236.426 55.9752 237.265C50.9909 240.164 46.4121 242.828 40.1833 238.982C39.1958 238.372 38.1137 236.076 40.7282 234.282C47.2421 229.812 56.629 221.99 57.8973 219.415Z" fill="#B28B67"/>
<path fill-rule="evenodd" clip-rule="evenodd" d="M121.903 85.129L129.558 83.815C157.962 108.369 169.628 155.54 204.444 180.528L196.064 190.923C135.665 183.439 120.694 125.902 121.903 85.129Z" fill="#DF5718"/>
<path fill-rule="evenodd" clip-rule="evenodd" d="M88.5308 181.401C88.5308 181.401 134.574 181.401 156.267 181.401C159.362 181.401 158.779 176.929 158.332 174.672C153.168 148.625 133.01 120.548 133.01 83.4712L113.471 80.4052C97.3108 106.415 91.7221 138.438 88.5308 181.401Z" fill="#DDE3E9"/>
<path fill-rule="evenodd" clip-rule="evenodd" d="M80.9143 200.006C77.8701 207.322 74.8848 213.707 72.0719 218.61H57.5449C55.982 168.04 75.1143 129.128 91.126 105.666C87.5709 105.411 84.362 103.923 82.3336 100.26C75.1923 87.3652 77.7713 80.2656 85.4031 77.9319C89.5997 76.6487 93.5466 77.5246 98.2713 78.5731C102.137 79.431 106.524 80.4046 111.995 80.4052C111.997 80.4052 111.998 80.4052 112 80.4052C112.53 80.4052 113.013 80.4408 113.451 80.5088L119.934 80.879C119.934 80.879 146.257 170.155 134.454 200.006H80.9143Z" fill="#DF5718"/>
<path fill-rule="evenodd" clip-rule="evenodd" d="M80.9143 200.006C84.9086 190.406 89.0045 179.201 92.9461 167.629C94.4133 180.373 96.8568 193.172 100.925 200.006H80.9143Z" fill="black" fill-opacity="0.1"/>
<path fill-rule="evenodd" clip-rule="evenodd" d="M456.49 52.581C449.753 56.6415 443.134 58.6034 440.027 57.8025C432.236 55.7942 431.52 27.2919 437.548 16.0554C443.576 4.81889 474.567 -0.0787039 476.129 22.1844C476.672 29.9112 473.427 36.8069 468.633 42.4337L477.229 82.4958L452.261 82.4958L456.49 52.581Z" fill="#B28B67"/>
<path fill-rule="evenodd" clip-rule="evenodd" d="M455.242 24.6433C453.082 21.4276 451.009 18.9747 448.312 17.5504C437.335 17.7238 436.05 15.756 436.05 9.12385C437.823 7.85526 444.078 5.71914 451.084 5.11827C454.657 4.09561 458.891 4.28795 462.969 5.99383C468.003 7.42221 472.266 10.4984 474.149 16.2576C480.961 28.0138 475.791 40.2517 468.823 44.4322C466.968 42.2347 465.349 40.1051 463.905 38.0665C465.065 36.9332 465.785 35.3513 465.785 33.6013C465.785 30.154 462.991 27.3595 459.544 27.3595C459.29 27.3595 459.04 27.3746 458.795 27.4039C458.64 31.7139 458.001 46.2958 456.325 51.3609C454.348 57.3324 442.812 58.7986 438.788 58.7986C435.313 58.7986 435.432 55.5079 435.517 53.1495C435.529 52.8099 435.54 52.4896 435.54 52.2012C435.54 51.5988 436.324 51.6003 437.209 51.6021C438.359 51.6044 439.68 51.607 439.68 50.2879C439.68 48.8501 437.693 47.7472 435.915 46.7602C434.806 46.1445 433.778 45.5739 433.364 44.9953C432.06 43.1698 431.621 40.7077 433.588 40.7077C434.664 40.7077 436.139 41.3277 437.915 42.0736C440.594 43.1997 443.957 44.6127 447.657 44.6127C453.769 44.6127 455.223 24.8972 455.242 24.6433Z" fill="#191847"/>
<path fill-rule="evenodd" clip-rule="evenodd" d="M519.563 131.323L458.641 233.174L412.967 319.28H403.13L479.657 131.323L519.563 131.323Z" fill="#997659"/>
<path fill-rule="evenodd" clip-rule="evenodd" d="M416.35 314.545C417.427 314.085 418.702 314.56 419.092 315.664C419.669 317.292 420.358 319.51 420.358 320.801C420.358 323.019 419.619 327.274 419.619 327.274C417.047 327.274 373.377 327.274 373.377 327.274C373.377 327.274 371.574 321.315 375.458 320.84C379.342 320.364 381.91 319.981 381.91 319.981L403.234 310.475C403.749 310.246 404.351 310.487 404.566 311.007L405.877 314.187C405.877 314.187 409.472 315.865 411.72 315.865C412.98 315.865 414.903 315.162 416.35 314.545Z" fill="#C5CFD6"/>
<path fill-rule="evenodd" clip-rule="evenodd" d="M425.652 305.492L406.68 299.753C406.68 299.753 419.149 262.48 437.244 217.717C455.338 172.955 476.11 131.323 476.11 131.323L523.395 134.532C523.395 134.532 506.6 183.985 480.729 227.024C454.858 270.062 425.652 305.492 425.652 305.492Z" fill="#676767"/>
<path fill-rule="evenodd" clip-rule="evenodd" d="M523.567 131.323C529.317 167.114 540.407 212.842 541.453 214.253C542.151 215.194 567.27 223.61 616.809 239.504L614.684 248.179C555.608 239.655 524.481 233.042 521.301 228.34C516.531 221.286 492.714 165.564 483.489 131.323H523.567Z" fill="#B28B67"/>
<path fill-rule="evenodd" clip-rule="evenodd" d="M599.395 232.005L595.652 245.976C551.467 249.852 524.394 247.052 514.433 237.576C504.471 228.1 493.119 192.683 480.374 131.323L523.915 134.532C531.99 184.777 544.058 207.746 545.012 209.855C545.966 211.964 564.094 219.347 599.395 232.005Z" fill="#676767"/>
<path fill-rule="evenodd" clip-rule="evenodd" d="M613.177 238.35C612.912 237.21 613.601 236.037 614.756 235.844C616.459 235.559 618.763 235.265 620.035 235.489C622.219 235.874 626.28 237.34 626.28 237.34C625.834 239.874 618.25 282.88 618.25 282.88C618.25 282.88 612.069 283.621 612.275 279.714C612.482 275.807 612.551 273.211 612.551 273.211L606.892 250.56C606.755 250.013 607.097 249.462 607.647 249.341L611.007 248.602C611.007 248.602 613.283 245.353 613.673 243.139C613.892 241.898 613.534 239.882 613.177 238.35Z" fill="#E4E4E4"/>
<path fill-rule="evenodd" clip-rule="evenodd" d="M402.028 135.635L439.48 125.988L438.242 141.998L405.405 143.449C393.26 149.307 387.097 151.385 386.917 149.682C386.765 148.245 387.948 147.34 389.037 146.507C389.885 145.857 390.677 145.251 390.738 144.471C390.875 142.689 385.599 141.132 380.496 139.852C375.393 138.572 377.892 137.017 379.604 136.407C386.087 135.284 393.562 135.027 402.028 135.635ZM574.041 154.776C570.051 151.087 527.944 100.056 527.944 100.056L511.208 106.552C511.208 106.552 562.589 158.008 564.894 160.481C567.887 163.693 567.401 170.216 567.072 174.64C567.021 175.324 566.974 175.958 566.944 176.522C569.816 176.678 570.485 174.9 571.19 173.025C571.986 170.908 572.828 168.668 576.945 168.952C578.535 169.062 580.097 169.314 581.623 169.56C586.894 170.411 591.736 171.193 595.846 165.802C596.497 164.948 596.672 162.605 593.816 161.923C586.702 160.223 575.992 156.58 574.041 154.776Z" fill="#997659"/>
<path fill-rule="evenodd" clip-rule="evenodd" d="M461.629 64.5207L453.348 68.2344C463.317 97.7509 459.364 119.777 430.819 122.183L442.949 160.427C469.181 157.111 484.357 135.555 472.196 94.7649C469.048 84.2055 465.488 73.31 461.629 64.5207Z" fill="#AFB9C5"/>
<path fill-rule="evenodd" clip-rule="evenodd" d="M535.181 100.774C518.101 77.6541 495.324 63.4375 466.852 58.1246L465.83 58.517L465.587 58.927L448.504 70.4066C457.672 94.2908 459.209 114.176 460.686 133.295C461.325 141.551 461.952 149.664 463.177 157.894L523.645 134.683C519.435 125.83 515.193 117.657 510.843 110.117L535.181 100.774Z" fill="#C5CFD6"/>
<path fill-rule="evenodd" clip-rule="evenodd" d="M516.876 137.281C508.546 120.184 499.391 104.553 488.824 90.6132C496.259 107.004 504.523 127.706 505.962 141.471L516.876 137.281Z" fill="black" fill-opacity="0.1"/>
<path d="M464.173 18.6627C463.76 18.36 463.337 17.9869 463.035 17.5345L462.771 17.1385C462.715 17.0546 462.611 17.0172 462.514 17.0463C462.417 17.0756 462.351 17.1646 462.351 17.2656V20.8603C462.216 20.7814 462.061 20.7328 461.893 20.7328C461.388 20.7328 460.977 21.1439 460.977 21.6493C460.977 22.1547 461.388 22.5658 461.893 22.5658C462.398 22.5658 462.809 22.1547 462.809 21.6493V18.0178C463.133 18.4271 463.538 18.7652 463.902 19.0324C464.081 19.1635 464.184 19.3658 464.184 19.5872C464.184 19.9663 463.876 20.2746 463.497 20.2746C463.37 20.2746 463.268 20.3771 463.268 20.5037C463.268 20.6304 463.37 20.7328 463.497 20.7328C464.128 20.7328 464.642 20.2189 464.642 19.5872C464.642 19.2237 464.467 18.8782 464.173 18.6627Z" fill="white"/>
<path d="M468.83 10.2808C468.417 9.97812 467.993 9.60501 467.692 9.1526L467.427 8.75656C467.372 8.67266 467.267 8.6353 467.17 8.66438C467.074 8.6937 467.008 8.78275 467.008 8.88366V12.4784C466.872 12.3995 466.717 12.3509 466.55 12.3509C466.044 12.3509 465.633 12.762 465.633 13.2674C465.633 13.7729 466.044 14.1839 466.55 14.1839C467.055 14.1839 467.466 13.7728 467.466 13.2674V9.63594C467.79 10.0452 468.195 10.3833 468.559 10.6505C468.738 10.7816 468.841 10.9839 468.841 11.2054C468.841 11.5844 468.532 11.8927 468.153 11.8927C468.027 11.8927 467.924 11.9952 467.924 12.1218C467.924 12.2485 468.027 12.3509 468.153 12.3509C468.785 12.3509 469.299 11.837 469.299 11.2054C469.299 10.8418 469.124 10.4963 468.83 10.2808Z" fill="white"/>
<path d="M456.295 36.8079C459.024 36.8079 461.236 34.5956 461.236 31.8665C461.236 29.1374 459.024 26.925 456.295 26.925C453.566 26.925 451.354 29.1374 451.354 31.8665C451.354 34.5956 453.566 36.8079 456.295 36.8079Z" fill="white"/>
<path d="M455.06 20.6149C455.467 20.6149 455.875 20.5531 456.295 20.5531C456.715 20.5531 457.123 20.5531 457.53 20.6149V18.0824H455.06V20.6149Z" fill="white"/>
<path d="M460.001 5.72874C460.001 5.04647 459.448 4.49338 458.766 4.49338H453.824C453.142 4.49338 452.589 5.04647 452.589 5.72874V15.6117H460.001V5.72874Z" fill="white"/>
<path d="M446.412 32.9068C446.412 38.365 450.837 42.7897 456.295 42.7897C461.753 42.7897 466.178 38.365 466.178 32.9068C466.178 27.4486 461.753 23.0239 456.295 23.0239C450.837 23.0239 446.412 27.4486 446.412 32.9068ZM463.707 32.9068C463.707 37.0004 460.389 40.319 456.295 40.319C452.201 40.319 448.883 37.0004 448.883 32.9068C448.883 28.8132 452.201 25.4946 456.295 25.4946C460.389 25.4946 463.707 28.8132 463.707 32.9068Z" fill="white"/>
<path d="M219.147 13.9655C219.147 14.5178 218.699 14.9655 218.147 14.9655H214.237C214.773 18.0247 217.554 20.1696 220.649 19.9097C223.744 19.6499 226.129 17.0712 226.147 13.9655V5.96551C226.129 2.85981 223.744 0.281155 220.649 0.0213013C217.554 -0.238553 214.773 1.90629 214.237 4.96551H218.147C218.699 4.96551 219.147 5.41323 219.147 5.96551C219.147 6.5178 218.699 6.96551 218.147 6.96551H214.147V8.96551H218.147C218.699 8.96551 219.147 9.41323 219.147 9.96551C219.147 10.5178 218.699 10.9655 218.147 10.9655H214.147V12.9655H218.147C218.699 12.9655 219.147 13.4132 219.147 13.9655Z" fill="#DB353A"/>
<path d="M219.147 21.8955V23.9655H221.147V21.8955C220.484 21.9888 219.81 21.9888 219.147 21.8955Z" fill="#DB353A"/>
<path d="M226.147 26.9655C226.147 26.4132 225.699 25.9655 225.147 25.9655H215.147C214.595 25.9655 214.147 26.4132 214.147 26.9655V27.9655H226.147V26.9655Z" fill="#DB353A"/>
<path d="M249.769 113.981C247.233 112.123 244.632 109.833 242.781 107.056L241.161 104.626C240.817 104.111 240.177 103.881 239.583 104.06C238.99 104.24 238.584 104.786 238.584 105.406V127.469C237.754 126.985 236.801 126.687 235.772 126.687C232.67 126.687 230.147 129.21 230.147 132.312C230.147 135.414 232.67 137.937 235.772 137.937C238.874 137.937 241.397 135.414 241.397 132.312V110.023C243.384 112.535 245.87 114.61 248.106 116.25C249.204 117.055 249.834 118.296 249.834 119.656C249.834 121.982 247.942 123.874 245.616 123.874C244.838 123.874 244.209 124.503 244.209 125.281C244.209 126.058 244.838 126.687 245.616 126.687C249.493 126.687 252.647 123.533 252.647 119.656C252.647 117.424 251.572 115.304 249.769 113.981Z" fill="#DB353A"/>
<rect x="211.147" y="28" width="103" height="43" rx="4" fill="white"/>
<g clip-path="url(#clip0)">
<rect x="250.147" y="40.7674" width="45" height="6.38368" rx="3" fill="#DDE3E9"/>
<rect x="250.147" y="51.4068" width="30.2055" height="6.38368" rx="3" fill="#DDE3E9"/>
</g>
<path fill-rule="evenodd" clip-rule="evenodd" d="M232.147 61C238.774 61 244.147 55.6274 244.147 49C244.147 42.3726 238.774 37 232.147 37C225.52 37 220.147 42.3726 220.147 49C220.147 55.6274 225.52 61 232.147 61Z" fill="#C5CFD6"/>
<rect x="267.147" y="88" width="103" height="43" rx="4" fill="white"/>
<g clip-path="url(#clip1)">
<rect x="306.147" y="100.767" width="45" height="6.38368" rx="3" fill="#DDE3E9"/>
<rect x="306.147" y="111.407" width="30.2055" height="6.38368" rx="3" fill="#DDE3E9"/>
</g>
<path fill-rule="evenodd" clip-rule="evenodd" d="M288.147 121C294.774 121 300.147 115.627 300.147 109C300.147 102.373 294.774 97 288.147 97C281.52 97 276.147 102.373 276.147 109C276.147 115.627 281.52 121 288.147 121Z" fill="#C5CFD6"/>
<g clip-path="url(#clip2)">
<path d="M349.201 188.513V164.946L348.301 165.022C344.695 165.32 341.158 166.182 337.819 167.577L336.236 168.234V191.707L337.389 191.228C340.844 189.791 344.502 188.901 348.232 188.592L349.201 188.513Z" fill="#DB353A"/>
<path d="M352.147 168.43H350.379V189.055C350.38 189.363 350.144 189.619 349.838 189.645L348.329 189.768C347.893 189.804 347.459 189.849 347.026 189.902C346.885 189.919 346.746 189.942 346.606 189.961C346.315 190 346.023 190.039 345.733 190.085C345.564 190.113 345.396 190.144 345.227 190.174C344.967 190.219 344.707 190.264 344.448 190.316C344.271 190.351 344.094 190.391 343.914 190.429C343.667 190.481 343.42 190.535 343.175 190.593C342.991 190.637 342.808 190.683 342.625 190.73C342.386 190.789 342.149 190.853 341.912 190.919C341.728 190.969 341.543 191.023 341.359 191.077C341.124 191.147 340.891 191.217 340.659 191.292C340.476 191.351 340.294 191.41 340.112 191.468C339.879 191.547 339.647 191.628 339.416 191.712C339.24 191.776 339.063 191.84 338.882 191.908C338.801 191.939 338.721 191.972 338.64 192.003H352.147V168.43Z" fill="#DB353A"/>
<path d="M322.993 165.022L322.094 164.946V188.514L323.139 188.603C326.866 188.915 330.522 189.81 333.971 191.255L335.058 191.707V168.234L333.477 167.578C330.137 166.182 326.6 165.32 322.993 165.022Z" fill="#DB353A"/>
<path d="M319.147 168.43V192.002H332.663C332.59 191.973 332.518 191.943 332.445 191.916C332.276 191.852 332.106 191.79 331.936 191.728C331.697 191.642 331.458 191.557 331.217 191.476C331.042 191.417 330.867 191.36 330.692 191.304C330.453 191.225 330.213 191.152 329.973 191.082C329.796 191.031 329.619 190.979 329.442 190.929C329.2 190.862 328.957 190.798 328.714 190.736C328.537 190.691 328.36 190.645 328.18 190.603C327.933 190.544 327.684 190.49 327.436 190.437C327.26 190.398 327.083 190.359 326.906 190.324C326.649 190.273 326.391 190.228 326.133 190.183C325.964 190.153 325.795 190.124 325.625 190.094C325.34 190.048 325.055 190.01 324.769 189.972C324.624 189.952 324.481 189.929 324.337 189.913C323.905 189.86 323.473 189.816 323.04 189.779L321.454 189.645C321.148 189.618 320.914 189.362 320.915 189.055V168.43H319.147Z" fill="#DB353A"/>
</g>
<path d="M360.376 60.4199C360.247 60.2861 360.07 60.2105 359.884 60.2105H354.41C354.224 60.2105 354.047 60.2861 353.918 60.4199C352.917 61.4558 344.147 70.6571 344.147 74.579C344.147 80.2388 349.979 84.8421 357.147 84.8421C364.315 84.8421 370.147 80.2388 370.147 74.579C370.147 70.6571 361.377 61.4558 360.376 60.4199Z" fill="#DB353A"/>
<path d="M365.871 52.9155C364.731 51.6264 361.765 53.3178 360.063 54.4632C359.283 53.3547 358.128 52 357.147 52C356.166 52 355.011 53.3547 354.231 54.4632C352.533 53.3164 349.562 51.6251 348.423 52.9155C348.108 53.2794 347.959 53.7587 348.013 54.2374C348.233 56.7717 353.392 60.9604 353.979 61.4284C354.101 61.5265 354.253 61.5796 354.41 61.579H359.884C360.039 61.5791 360.189 61.5265 360.311 61.4299C360.898 60.9605 366.058 56.7772 366.277 54.2388C366.333 53.7602 366.186 53.2801 365.871 52.9155Z" fill="#DB353A"/>
<path d="M362.621 61.5789H351.673C351.295 61.5789 350.989 61.2726 350.989 60.8947C350.989 60.5168 351.295 60.2105 351.673 60.2105H362.621C362.999 60.2105 363.305 60.5169 363.305 60.8948C363.305 61.2726 362.998 61.5789 362.621 61.5789Z" fill="#DDE3E9"/>
<path d="M359.886 77.3158H358.326L355.288 72.3637V77.3158H353.728V69.7895H355.288L358.331 74.7519V69.7895H359.886V77.3158Z" fill="white"/>
<path d="M351.674 72.8282C351.674 72.5343 351.912 72.2962 352.206 72.2963L360.72 72.3012C361.014 72.3013 361.252 72.5397 361.252 72.8336C361.251 73.1275 361.013 73.3656 360.719 73.3655L352.205 73.3606C351.912 73.3605 351.673 73.1221 351.674 72.8282Z" fill="#FAFAFA"/>
<path d="M351.674 74.9595C351.674 74.6656 351.912 74.4275 352.206 74.4276L360.72 74.4325C361.014 74.4326 361.252 74.6711 361.252 74.9649C361.251 75.2588 361.013 75.497 360.719 75.4968L352.205 75.492C351.912 75.4918 351.673 75.2534 351.674 74.9595Z" fill="#FAFAFA"/>
<defs>
<clipPath id="clip0">
<rect width="45" height="17.0231" fill="white" transform="translate(250.147 40.7674)"/>
</clipPath>
<clipPath id="clip1">
<rect width="45" height="17.0231" fill="white" transform="translate(306.147 100.767)"/>
</clipPath>
<clipPath id="clip2">
<rect width="33" height="33" fill="white" transform="translate(319.147 162)"/>
</clipPath>
</defs>
</svg>
