<svg width="78" height="21" viewBox="0 0 78 21" fill="none" xmlns="http://www.w3.org/2000/svg">
<path d="M21.1047 10.4998C21.13 16.1588 16.5102 20.9799 10.5618 20.9875C4.75866 20.9942 -0.0045185 16.3435 3.21672e-06 10.489C0.00452493 4.55812 4.86266 -0.0121128 10.5718 2.41171e-05C16.417 0.0121611 21.1332 4.75591 21.1047 10.4998ZM10.9692 6.35664C10.9507 8.04952 12.3782 9.42144 14.0512 9.42099C15.6506 9.42099 17.1305 8.13717 17.1341 6.35214C17.1378 4.55048 15.6574 3.27565 14.0666 3.27251C12.4225 3.26936 10.9498 4.63139 10.9692 6.35664Z" fill="#DB353A"/>
<path d="M10.9436 6.35084C10.924 4.62608 12.4045 3.26444 14.0572 3.26758C15.6563 3.27073 17.1444 4.54519 17.1408 6.34634C17.1372 8.13086 15.6494 9.41432 14.0417 9.41432C12.3599 9.41432 10.9249 8.04323 10.9436 6.35084Z" fill="#FFFEFE"/>
<path d="M75.8819 16.3477C75.8389 16.3333 75.826 16.3427 75.8126 16.3649C75.4927 16.9031 74.9908 17.1955 74.3973 17.3107C73.3471 17.5172 72.3689 17.3173 71.5046 16.6794C70.7922 16.1533 70.3924 15.4273 70.2763 14.5624C70.1475 13.6875 70.286 12.7945 70.6738 11.9985C71.2394 10.8356 72.1774 10.1351 73.442 9.86372C73.9544 9.74681 74.4837 9.72057 75.0053 9.78619C76.3068 9.96284 77.1923 10.6606 77.673 11.865C77.8412 12.2725 77.9284 12.7083 77.9298 13.1486C77.9203 14.445 77.9762 15.7397 77.9991 17.0355C78.0099 17.547 77.922 18.0558 77.74 18.5345C77.3213 19.6332 76.5502 20.3818 75.4285 20.7529C74.525 21.0552 73.5505 21.0803 72.6324 20.8248C72.2932 20.7366 71.973 20.5882 71.6872 20.3868C71.2042 20.0424 70.9323 19.5911 70.9613 18.9836C70.9714 18.7698 70.9613 18.555 70.9641 18.3407C70.9641 18.2986 70.9736 18.2543 71.0172 18.2404C71.0377 18.2361 71.0591 18.2375 71.0789 18.2447C71.0986 18.2518 71.1159 18.2644 71.1288 18.2809C71.3241 18.4632 71.5479 18.6128 71.7916 18.7239C72.1276 18.8786 72.4834 18.9872 72.849 19.0467C73.2219 19.1087 73.6005 19.1295 73.978 19.1087C74.287 19.0988 74.592 19.0362 74.8797 18.9238C75.4291 18.7023 75.7574 18.2964 75.8724 17.7255C75.9341 17.4343 75.9488 17.1352 75.9159 16.8394C75.8981 16.675 75.893 16.5061 75.8819 16.3477ZM75.8422 13.5789C75.8422 13.0772 75.7864 12.7649 75.6474 12.4592C75.3727 11.8462 74.8462 11.5632 74.1879 11.5964C73.5296 11.6297 73.0154 11.9542 72.6938 12.5317C72.5168 12.8381 72.4109 13.1796 72.3836 13.5317C72.3564 13.8837 72.4086 14.2373 72.5364 14.5668C72.8027 15.2867 73.4855 15.7895 74.4665 15.5868C75.0807 15.4595 75.4715 15.063 75.6909 14.492C75.7982 14.2002 75.8495 13.8911 75.8422 13.5806V13.5789Z" fill="white"/>
<path d="M30.4697 10.3945C30.3927 10.3879 30.358 10.3308 30.3151 10.2904C29.7489 9.77209 29.0694 9.51515 28.3146 9.42322C27.8649 9.36849 27.4101 9.36942 26.9606 9.42599C26.6527 9.4549 26.3523 9.53757 26.0734 9.6702C25.6162 9.90278 25.394 10.2716 25.409 10.7844C25.4105 10.9021 25.4377 11.018 25.4887 11.1243C25.5397 11.2306 25.6133 11.3247 25.7044 11.4001C25.8463 11.5186 26.0056 11.6149 26.1767 11.6859C26.5651 11.8486 26.9677 11.976 27.3794 12.0663C27.7289 12.1494 28.0817 12.2214 28.4285 12.3161C28.8973 12.4392 29.3398 12.6456 29.7344 12.9252C30.3017 13.3339 30.6836 13.8727 30.7673 14.566C30.9555 16.0999 30.3396 17.5724 28.6384 18.1892C27.8724 18.4661 27.0751 18.5326 26.2666 18.4694C25.8658 18.4471 25.4693 18.3764 25.0858 18.259C24.8207 18.1772 24.5685 18.059 24.3365 17.9079C23.8044 17.5491 23.5275 17.0513 23.5141 16.4128C23.5079 16.127 23.5141 15.8413 23.5141 15.5556C23.5141 15.4919 23.5665 15.4647 23.6162 15.5002C23.6821 15.5489 23.7441 15.6032 23.8089 15.653C24.7926 16.4106 25.9043 16.7052 27.1382 16.5623C27.405 16.5382 27.6669 16.4761 27.9159 16.3779C28.1906 16.2627 28.4151 16.0899 28.5407 15.8153C28.692 15.483 28.6953 15.1413 28.6116 14.7969C28.5692 14.623 28.4441 14.4951 28.3023 14.3882C28.1431 14.275 27.9687 14.1846 27.7842 14.1197C27.3111 13.9497 26.8259 13.8153 26.3325 13.7176C25.9594 13.6438 25.5923 13.5428 25.2343 13.4153C24.8364 13.2741 24.4657 13.0666 24.1383 12.8017C23.4973 12.2668 23.226 11.5735 23.2918 10.7644C23.4113 9.34071 24.2092 8.40153 25.5012 7.845C25.9562 7.65137 26.4439 7.54412 26.9388 7.52881C27.5363 7.5061 28.132 7.51662 28.7177 7.65783C29.0393 7.7292 29.348 7.8493 29.6328 8.0139C29.9298 8.18148 30.1727 8.42943 30.3329 8.7288C30.4242 8.88973 30.4778 9.06896 30.4898 9.25322C30.4993 9.60984 30.5021 9.96701 30.5049 10.3242C30.5049 10.3463 30.4842 10.3718 30.4697 10.3945Z" fill="white"/>
<path d="M41.1375 15.0134C40.7573 15.0134 40.3765 15.0134 39.9957 15.0134C39.8796 15.0134 39.8489 15.0533 39.8734 15.1646C39.9341 15.4452 40.0633 15.7067 40.2497 15.926C40.5881 16.3253 41.028 16.5501 41.5339 16.6625C41.9515 16.7556 42.3714 16.7395 42.7935 16.7046C43.1116 16.6792 43.4257 16.6179 43.7298 16.5219C44.0944 16.4101 44.4333 16.2286 44.7275 15.9875C44.7912 15.9321 44.8543 15.962 44.8543 16.0401C44.8543 16.3358 44.8721 16.631 44.823 16.9261C44.7923 17.1337 44.7183 17.3325 44.6057 17.5101C44.4932 17.6876 44.3445 17.8399 44.1692 17.9572C43.8702 18.1586 43.5314 18.2947 43.1754 18.3565C42.5473 18.4783 41.9152 18.5298 41.2737 18.4462C39.74 18.2474 38.2855 17.1499 37.8305 15.4675C37.6894 14.9445 37.641 14.4011 37.6876 13.8616C37.7189 13.383 37.811 12.9102 37.9617 12.4545C38.2671 11.5785 38.7836 10.8602 39.5809 10.3585C40.1118 10.0263 40.6947 9.84853 41.3184 9.77875C41.964 9.69717 42.6198 9.78996 43.2167 10.0473C44.2139 10.4837 44.8526 11.2263 45.0876 12.2895C45.176 12.6579 45.1887 13.0402 45.1251 13.4136C45.043 13.8566 44.823 14.2099 44.4394 14.458C44.1591 14.6304 43.8505 14.7528 43.5277 14.8196C43.0356 14.929 42.5338 14.9899 42.0297 15.0013C41.7315 15.0101 41.4334 15.0013 41.1364 15.0013L41.1375 15.0134ZM40.8873 13.5416C41.3039 13.5371 41.7555 13.5416 42.2044 13.4779C42.4185 13.4534 42.6283 13.4003 42.8281 13.3201C42.9396 13.2776 43.035 13.2018 43.1011 13.1032C43.1672 13.0046 43.2008 12.888 43.1971 12.7696C43.2038 12.2961 43.014 11.8792 42.5272 11.6621C42.0921 11.468 41.6028 11.4289 41.1419 11.5513C40.5864 11.6942 40.2229 12.0652 39.9974 12.578C39.8885 12.8244 39.8572 13.0875 39.8338 13.3533C39.8193 13.5133 39.8366 13.5366 39.9907 13.5382C40.2777 13.5438 40.5652 13.5416 40.8873 13.5416Z" fill="white"/>
<path d="M68.9398 15.5529C68.9398 16.3281 68.9398 17.1034 68.9398 17.8786C68.9398 17.9401 68.9398 18.0016 68.9398 18.0625C68.9347 18.2934 68.9308 18.2984 68.6935 18.3006C68.4468 18.3006 68.1994 18.3095 67.9566 18.2524C67.425 18.1278 67.0504 17.8316 66.8918 17.2994C66.8444 17.1405 66.8505 16.976 66.8505 16.8127C66.8505 15.7816 66.8505 14.7506 66.8505 13.7199C66.8543 13.4031 66.8194 13.087 66.7467 12.7785C66.7055 12.6097 66.6405 12.4475 66.5535 12.2967C66.4013 12.0263 66.1556 11.8196 65.8617 11.7147C65.503 11.5784 65.1105 11.5558 64.7384 11.6499C64.4153 11.7293 64.1346 11.9272 63.9528 12.2037C63.7927 12.4426 63.6905 12.7149 63.6541 12.9995C63.6231 13.2219 63.6074 13.4461 63.6072 13.6706C63.6098 15.1001 63.6098 16.5291 63.6072 17.9578C63.6072 18.3322 63.6317 18.3006 63.2532 18.3006C63.0476 18.3083 62.8418 18.295 62.639 18.2607C62.0031 18.1323 61.6033 17.707 61.5352 17.0724C61.5242 16.9607 61.5189 16.8485 61.5196 16.7362C61.5196 15.6435 61.5196 14.5513 61.5196 13.4596C61.5196 13.0166 61.5615 12.5825 61.701 12.1611C62.0628 11.0696 62.7848 10.3231 63.8908 9.96707C64.7222 9.69961 65.5658 9.6614 66.4133 9.90284C67.7438 10.2833 68.535 11.1682 68.8398 12.4961C68.9107 12.8371 68.944 13.1846 68.9392 13.5327C68.9426 14.205 68.9398 14.8789 68.9398 15.5529Z" fill="white"/>
<path d="M32.2105 12.7914C32.2105 11.9436 32.2105 11.0964 32.2105 10.2491C32.2068 10.0859 32.2158 9.92258 32.2373 9.76069C32.3439 9.08012 32.7493 8.59447 33.2981 8.21349C33.5672 8.02742 33.8799 8.0313 34.1914 8.05622C34.2176 8.05779 34.2421 8.06956 34.2595 8.08895C34.277 8.10835 34.286 8.1338 34.2847 8.15977C34.2886 8.23121 34.2886 8.30264 34.2886 8.37408C34.2886 8.7822 34.2886 9.19087 34.2886 9.599C34.2886 9.67043 34.2886 9.74187 34.2886 9.8133C34.2865 9.82862 34.288 9.8442 34.2928 9.8589C34.2976 9.87361 34.3056 9.88706 34.3163 9.89831C34.327 9.90955 34.3401 9.91828 34.3546 9.92389C34.3691 9.92949 34.3847 9.93182 34.4002 9.9307C34.4829 9.9307 34.5649 9.93402 34.647 9.93402H36.8089C36.8708 9.93402 36.9323 9.93402 36.9942 9.93402C37.1947 9.93845 37.1991 9.94177 37.2025 10.1439C37.2025 10.3178 37.2025 10.4911 37.2025 10.6644C37.1986 11.2547 36.8385 11.6706 36.2489 11.7553C36.0958 11.775 35.9415 11.7845 35.7871 11.7836C35.4063 11.7875 35.0256 11.7836 34.6448 11.7836C34.5728 11.7836 34.5007 11.7836 34.4287 11.7836C34.3288 11.7891 34.2964 11.8185 34.2902 11.9087C34.2858 11.9696 34.2869 12.0311 34.2869 12.0926C34.2869 13.062 34.2869 14.0318 34.2869 15.002C34.2789 15.2369 34.3039 15.4717 34.3612 15.6998C34.5052 16.1982 34.814 16.475 35.3533 16.5238C35.9301 16.5725 36.5057 16.5426 37.0456 16.2901C37.16 16.2347 37.1991 16.2607 37.2008 16.3798C37.2008 16.6013 37.2092 16.8294 37.2008 17.0532C37.1746 17.5925 36.9127 17.9768 36.4124 18.1989C36.2247 18.2835 36.0242 18.337 35.8189 18.3573C35.2416 18.4126 34.6671 18.3905 34.1071 18.221C33.1725 17.9392 32.5857 17.3223 32.3367 16.3886C32.2483 16.0524 32.2048 15.7061 32.2071 15.3587C32.2071 14.5014 32.2071 13.644 32.2071 12.7864L32.2105 12.7914Z" fill="white"/>
<path d="M52.0977 11.7243C52.0977 10.2956 52.0977 8.86726 52.0977 7.43929C52.0977 7.1458 52.0882 7.15743 52.3858 7.15854C52.5404 7.15854 52.6945 7.15854 52.8486 7.16186C53.0238 7.16645 53.197 7.20053 53.3606 7.26264C53.7822 7.41327 54.0345 7.71285 54.1423 8.1398C54.1821 8.3192 54.1997 8.50273 54.1948 8.68636C54.1948 10.9103 54.1948 13.1342 54.1948 15.3581C54.1948 15.5009 54.1948 15.6444 54.2043 15.7861C54.2394 16.2158 54.465 16.4844 54.8804 16.5946C55.0594 16.6423 55.2439 16.6661 55.4292 16.6655C55.6353 16.6655 55.8407 16.6655 56.0468 16.6688C56.1154 16.6688 56.169 16.6954 56.1713 16.7718C56.1791 17.0487 56.1908 17.3256 56.1154 17.5925C56.078 17.7471 56.0017 17.8898 55.8936 18.0073C55.7855 18.1247 55.6492 18.2131 55.4974 18.2642C55.3536 18.3172 55.2034 18.3509 55.0507 18.3644C54.5885 18.4064 54.1225 18.3585 53.6789 18.2232C52.833 17.9574 52.3517 17.3726 52.1714 16.5243C52.1209 16.2636 52.098 15.9984 52.1033 15.733C52.0999 14.3969 52.0981 13.0607 52.0977 11.7243Z" fill="white"/>
<path d="M48.4936 15.6373C48.4936 16.4344 48.4936 17.2308 48.4936 18.0268C48.4936 18.3037 48.4903 18.3037 48.2251 18.3037C47.9599 18.3037 47.6896 18.3092 47.4261 18.2483C46.9521 18.1431 46.5975 17.8961 46.4468 17.4176C46.3986 17.2612 46.3747 17.0984 46.3759 16.9348C46.3759 15.6484 46.3697 14.362 46.3798 13.0756C46.3752 12.5324 46.4895 11.9947 46.7148 11.4996C47.1386 10.597 47.8515 10.0764 48.8364 9.9142C49.2426 9.83946 49.6592 9.84115 50.0647 9.91918C50.257 9.95612 50.4413 10.0262 50.6091 10.1263C50.7977 10.2338 50.9547 10.3884 51.0645 10.5748C51.1743 10.7611 51.2331 10.9726 51.235 11.1884C51.2428 11.3922 51.2389 11.5965 51.235 11.8009C51.235 11.9493 51.1948 11.9725 51.0424 11.9249C50.9737 11.9039 50.9067 11.8767 50.838 11.8551C50.4442 11.7312 50.0277 11.6949 49.6181 11.7488C49.148 11.8108 48.8236 12.0622 48.6494 12.4992C48.5708 12.6884 48.5252 12.8895 48.5143 13.0939C48.5042 13.3281 48.4958 13.5629 48.4953 13.7977C48.4919 14.4107 48.4936 15.0232 48.4936 15.6373Z" fill="white"/>
<path d="M56.9812 13.2134C56.9812 12.2735 56.9812 11.3341 56.9812 10.3953C56.9812 10.1234 56.9812 10.1229 57.2476 10.1185C57.4945 10.1081 57.7418 10.1228 57.9857 10.1622C58.5384 10.2729 58.879 10.5975 59.0124 11.1363C59.0586 11.336 59.0802 11.5405 59.0766 11.7454C59.074 12.9707 59.074 14.196 59.0766 15.4213C59.0766 15.5536 59.0733 15.6871 59.0861 15.8189C59.1258 16.2203 59.3061 16.5238 59.7969 16.6229C60.0201 16.6594 60.2464 16.6738 60.4725 16.6661C60.7477 16.6661 60.7466 16.6633 60.7449 16.9352C60.7529 17.1597 60.7363 17.3844 60.6952 17.6053C60.607 17.9929 60.3787 18.2349 59.985 18.3252C59.855 18.3554 59.7222 18.3724 59.5886 18.3761C59.2591 18.3867 58.9297 18.3494 58.611 18.2654C57.8293 18.0527 57.3358 17.5499 57.1113 16.7846C57.021 16.4699 56.977 16.1439 56.9807 15.8166C56.9807 14.9489 56.9807 14.0812 56.9807 13.214L56.9812 13.2134Z" fill="white"/>
<path d="M56.7961 8.1263C56.7968 7.80719 56.9249 7.50135 57.1524 7.27565C57.3798 7.04995 57.6881 6.92275 58.0099 6.92188C58.6866 6.92187 59.2672 7.48727 59.246 8.14513C59.2417 8.46535 59.1111 8.77115 58.8822 8.99709C58.6534 9.22302 58.3445 9.35113 58.0216 9.35399C57.8593 9.35512 57.6984 9.32405 57.5484 9.2626C57.3984 9.20115 57.2623 9.11056 57.1481 8.99617C57.0339 8.88178 56.944 8.7459 56.8835 8.59651C56.823 8.44712 56.7933 8.28725 56.7961 8.1263Z" fill="white"/>
</svg>
