<svg width="18" height="24" viewBox="0 0 18 24" fill="none" xmlns="http://www.w3.org/2000/svg">
<path d="M16.3638 6.69824H1.63331C1.18754 6.69824 0.826172 7.05958 0.826172 7.5053V20.1135C0.826172 22.2566 2.56974 24 4.71264 24H13.2842C15.4271 24 17.1707 22.2566 17.1707 20.1135V7.5053C17.1708 7.05961 16.8095 6.69824 16.3638 6.69824ZM7.05829 19.139C7.05829 19.6866 6.61437 20.1305 6.06668 20.1305C5.51919 20.1305 5.07507 19.6866 5.07507 19.139V11.5593C5.07507 11.0116 5.51911 10.5677 6.06668 10.5677C6.61433 10.5677 7.05829 11.0117 7.05829 11.5593V19.139ZM12.9219 19.139C12.9219 19.6866 12.4779 20.1305 11.9302 20.1305C11.3828 20.1305 10.9386 19.6866 10.9386 19.139V11.5593C10.9386 11.0116 11.3827 10.5677 11.9302 10.5677C12.4779 10.5677 12.9219 11.0117 12.9219 11.5593V19.139Z" fill="#5766CB"/>
<path d="M15.5549 1.25576H12.0391V0.950863C12.0391 0.426549 11.6126 0 11.0884 0H6.90831C6.384 0 5.95745 0.426549 5.95745 0.950863V1.25576H2.44161C1.09533 1.25576 0 2.35102 0 3.69733V5.26298C0 5.54298 0.22698 5.77 0.507098 5.77H17.4896C17.7695 5.77 17.9965 5.54298 17.9965 5.26298V3.69733C17.9965 2.35106 16.9013 1.25576 15.5549 1.25576Z" fill="#5766CB"/>
</svg>
